<?xml version="1.0" encoding="utf-8"?>
<!-- Generator: Adobe Illustrator 25.4.1, SVG Export Plug-In . SVG Version: 6.00 Build 0)  -->
<svg version="1.1" id="Layer_1" xmlns:xodm="http://www.corel.com/coreldraw/odm/2003"
	 xmlns="http://www.w3.org/2000/svg" xmlns:xlink="http://www.w3.org/1999/xlink" x="0px" y="0px" viewBox="0 0 342.7 164.8"
	 style="enable-background:new 0 0 342.7 164.8;" xml:space="preserve">
<style type="text/css">
	.st0{fill-rule:evenodd;clip-rule:evenodd;fill:#FFFFFF;}
	.st1{fill-rule:evenodd;clip-rule:evenodd;fill:#FEFEFE;}
	.st2{fill:#01579B;}
	.st3{fill-rule:evenodd;clip-rule:evenodd;fill:#FFC50C;}
	.st4{fill:#FFFFFF;}
	.st5{fill:#8D8382;}
	.st6{fill:#FFC50C;}
	.st7{fill:#504742;}
	.st8{fill-rule:evenodd;clip-rule:evenodd;fill:#F5F6F6;}
	.st9{fill:#2F318B;}
	.st10{fill:#1D1819;}
</style>
<g id="Layer_x0020_1">
	<g id="_42594503456">
		<g>
			<path class="st0" d="M40.9,33.1c1.3-0.6,2.8-1,4.3-1h10.6c1.4,0,2.9,0.3,4.1,0.9c3.6-1.4,7.6-1.8,11.4-1.8
				c3.9,0,7.9,0.4,11.6,1.8c1.3-0.6,2.7-0.9,4.2-0.9h10.6c0.7,0,1.3,0.1,2,0.2c0.7-0.1,1.3-0.2,2-0.2h0.5l7.7-12.6
				c6.1-9.8,20-13.4,30.8-11l104.4,23.6h4.6c1.3,0,2.6,0.2,3.7,0.7c3.3-1.2,6.8-1.6,10.3-1.6c1-0.6,2-1.1,3.1-1.5l-4.3-13.2
				c-1.8-5.7,2.2-11.6,7.9-12.6l4.3-0.7c3.7-0.6,7.3,0.9,9.5,3.7c2.2-2.3,5.5-3.6,8.9-3l4.3,0.7c4.2,0.7,7.5,4.1,8.2,8
				c3.4-2.6,8.4-2.6,12,0.2l3.5,2.7c2.5,1.9,3.8,4.8,3.9,7.7c3.7-0.6,7.7,1,9.9,4.4l2.4,3.7c3.2,4.9,1.6,11.8-3.8,14.4l-10.6,4.9
				c0.6,1.2,1.1,2.4,1.5,3.6c0.6,0.8,1.1,1.7,1.6,2.5c6.5,10.7,8.3,24,4.8,36c-2.9,10.1-9.2,19-17.9,25l-2.2,1.5
				c-2.1,1.4-5.7,3.6-7.2,5.6c-0.5,0.7-0.9,1.4-1.2,2.2c-0.6,1.5-1.4,2.9-2.3,4.2c0,0,0,0,0,0c-0.2,0.8-0.5,1.6-0.9,2.4
				c-0.1,0.8-0.3,1.6-0.5,2.5c-0.3,1-0.6,1.9-1.1,2.8c-0.1,1-0.3,2-0.6,3c-1.2,4.1-4,7.6-7.7,9.7c-4.6,3.7-10.9,5-16.6,3.4
				l-12.8-3.7c-0.6,0.1-1.2,0.2-1.7,0.3l-0.2,0l-29.7,3l-3,3.2c-0.9,0.9-2,1.4-3.2,1.4l-216,3.5c-1.4,0-2.7-0.6-3.6-1.7
				c-0.9-1.1-1.2-2.5-0.9-3.9l6.8-29.4c0.5-2.1,2.3-3.5,4.5-3.5l44.7,0.6c0.2-0.4,0.5-0.8,0.8-1.2l4-23.2c-1-0.2-1.9-0.5-2.9-0.9
				c-1.3,0.6-2.7,0.9-4.1,0.9H45.3c-1.5,0-3-0.3-4.3-1c-2.2,0.7-4.4,1-6.7,1H17.1c-5.5,0-10-4.5-10-10V42.1c0-5.5,4.5-10,10-10h17.2
				C36.5,32.1,38.8,32.4,40.9,33.1L40.9,33.1z"/>
		</g>
		<path class="st1" d="M260.5,146.4c-0.8,0.2-1.6,0.4-2.5,0.5l-0.1,0l-31.1,3.2l-0.2,0l-4.2,4.5l-216,3.5l6.8-29.4l48,0.6
			c0.1-1.4,0.7-2.7,1.8-3.7L67.9,98c-0.2-0.4-0.3-0.9-0.4-1.3c-2.7-0.3-5.5-0.9-7.9-2.3c-1,0.9-2.3,1.5-3.8,1.5H45.3
			c-1.5,0-2.8-0.6-3.8-1.6c-2.2,1.1-4.7,1.6-7.2,1.6H17.1c-3,0-5.5-2.5-5.5-5.5V42.1c0-3,2.5-5.5,5.5-5.5h17.2c2.5,0,5,0.4,7.2,1.6
			c1-1,2.3-1.6,3.8-1.6h10.6c1.5,0,2.8,0.6,3.8,1.5c3.5-2,7.9-2.4,11.8-2.4c3.9,0,8.4,0.4,11.9,2.5c1-1,2.3-1.6,3.8-1.6h10.6
			c0.7,0,1.4,0.1,2,0.4c0.6-0.2,1.3-0.4,2-0.4h3l9.1-14.7c5-8.1,17-10.9,25.9-8.9l104.9,23.7h5.1c1.3,0,2.5,0.5,3.5,1.2
			c3.4-1.8,7.6-2.2,11.3-2.2l0.5,0c2.7-1.6,5.7-2.9,8.7-3.8c-1.1-0.7-1.9-1.9-2.4-3.2L267,15c-1-3.1,1.3-6.2,4.4-6.7l4.3-0.7
			c3.1-0.5,6.2,1.7,6.3,5l0,2.9c0.3-0.1,0.7-0.1,1-0.1l2.5,0c0.3,0,0.6,0,0.8,0.1l0-2.3c0-3.2,3.2-5.5,6.3-5l4.3,0.7
			c3.1,0.5,5.4,3.7,4.4,6.7l-0.8,2.6c0.5,0,0.9,0.2,1.3,0.3l2.3,1c0.6,0.3,1.1,0.6,1.5,1.1l1.6-3c1.6-2.8,5.4-3.3,7.9-1.4l3.5,2.7
			c2.5,1.9,3,5.7,0.7,8l-1.1,1.1c0.1,0.1,0.2,0.2,0.3,0.3l1.8,1.8c0.3,0.3,0.5,0.6,0.7,0.9l2.6-2.3c2.4-2.2,6.2-1.4,7.9,1.2l2.4,3.7
			c1.7,2.6,1,6.4-2,7.8l-13.1,6.1c-0.7,0.3-1.4,0.5-2.1,0.6c0.2,0.3,0.4,0.7,0.6,1c1.4,2.3,2.5,4.6,3.3,7.1c0.6,0.9,1.2,1.8,1.8,2.8
			c5.8,9.7,7.4,21.6,4.3,32.4c-2.6,9.1-8.3,17.2-16.1,22.5l-2.2,1.5c-2.6,1.8-6.3,4.1-8.2,6.6c-0.8,1-1.4,2.2-1.8,3.4
			c-0.5,1.4-1.3,2.7-2.3,3.8c-0.1,0.3-0.1,0.5-0.2,0.8c-0.2,0.8-0.5,1.6-0.9,2.3c-0.1,0.8-0.2,1.7-0.4,2.5c-0.3,1-0.7,1.9-1.2,2.8
			c0,1-0.2,2-0.4,3c-0.9,3.1-3,5.7-5.9,7.2c-3.5,3-8.4,4.1-12.8,2.8l-12.9-3.7C261.2,146.7,260.9,146.5,260.5,146.4L260.5,146.4z"/>
		<g>
			<g>
				<path class="st1" d="M260.5,146.4c-0.8,0.2-1.6,0.4-2.5,0.5l-0.1,0l-31.1,3.2l-33.8-0.4l-7-6.6l-32.3,3.1
					c-5.3,0.5-11.3-0.4-15.8-3.5L79,102.9c-5.9-4-8-11-4.2-17.2L114,21.9c5-8.1,17-10.9,25.9-8.9l123.3,27.8h3.7
					c1.9,0,3.8,0.4,5.6,1.1c7.4-2.9,15.5-3.7,23.4-2c0.9,0.2,1.9,0.4,2.8,0.7c10,2.8,18.5,9.3,23.9,18.3c5.8,9.7,7.4,21.6,4.3,32.4
					c-2.6,9.1-8.3,17.2-16.1,22.5l-2.2,1.5c-2.6,1.8-6.3,4.1-8.2,6.6c-0.8,1-1.4,2.2-1.8,3.4c-0.5,1.4-1.3,2.7-2.2,3.8
					c-0.1,0.3-0.1,0.5-0.2,0.8c-0.2,0.8-0.5,1.6-0.9,2.3c-0.1,0.8-0.2,1.7-0.4,2.5c-0.3,1-0.7,1.9-1.2,2.8c0,1-0.2,2-0.4,3
					c-0.9,3.1-3,5.7-5.9,7.2c-3.5,3-8.4,4.1-12.8,2.8l-12.9-3.7C261.2,146.7,260.9,146.5,260.5,146.4L260.5,146.4z"/>
			</g>
			<path class="st2" d="M318.9,61.1c-4.8-8-12.4-13.8-21.4-16.3c-0.8-0.2-1.7-0.4-2.5-0.6c-7.8-1.7-15.8-0.6-22.7,2.6
				c-1.6-1-3.4-1.6-5.4-1.6h-4.2L139,17.2c-8.2-1.9-17.8,1.3-21.3,7L78.5,87.9c-2.5,4-1.3,8.5,2.9,11.3l59.1,39.9
				c3.3,2.2,8,3.2,12.9,2.8l34.3-3.3l7.2,6.8l31.8,0.4l30.8-3.2c1.1-0.2,2.2-0.5,3.2-0.9c0.6,0.4,1.3,0.7,2.1,0.9l12.9,3.7
				c3.3,0.9,6.8,0,9.2-2.3c2-0.9,3.5-2.6,4.1-4.7c0.3-1,0.4-2.1,0.2-3c0.6-0.8,1.1-1.7,1.4-2.7c0.2-0.8,0.3-1.7,0.3-2.5
				c0.5-0.7,0.9-1.4,1.1-2.3c0.1-0.5,0.2-1.1,0.3-1.6c1-0.9,1.8-2.1,2.3-3.4c2.1-5.4,5.1-7.4,11.6-11.9l2.2-1.5
				c7-4.8,12.1-12,14.4-20.1C325.6,80.3,324.1,69.8,318.9,61.1L318.9,61.1z"/>
			<polygon class="st3" points="13.3,128.8 243.6,131.8 222.4,154.6 6.5,158.2 			"/>
			<path class="st4" d="M258.6,134.5c-3.5-1-6.1-3.8-7-7.1c-1.3-1.9-1.7-4.2-1.1-6.5c0.3-1.1,0.8-2,1.5-2.8c-0.1-1-0.1-2.1,0.2-3.2
				c0.2-0.9,0.6-1.7,1.2-2.4c-0.1-0.9,0-1.8,0.3-2.6c0.2-0.6,0.4-1.1,0.6-1.6c-0.4-1.4-0.4-2.9-0.2-4.3c1.1-5.9-0.4-9.4-3.7-16.9
				c-0.4-0.9-0.8-1.8-1.2-2.8c-4-9.2-4.2-19.4-0.7-28.8c6.6-17.7,25.5-28.1,44-24.2c0.9,0.2,1.8,0.4,2.7,0.7
				c9.4,2.7,17.4,8.8,22.4,17.1c5.5,9.1,7,20.2,4.1,30.4c-2.4,8.6-7.8,16.1-15.1,21.1l-2.3,1.6c-6.9,4.7-10,6.9-12.2,12.5
				c-0.5,1.4-1.4,2.6-2.4,3.6c0,0.6-0.1,1.1-0.3,1.7c-0.2,0.9-0.6,1.7-1.2,2.4c0.1,0.9,0,1.8-0.3,2.6c-0.3,1.1-0.8,2-1.5,2.8
				c0.1,1,0.1,2.1-0.2,3.2c-0.6,2.3-2.3,4.1-4.4,5c-2.5,2.4-6.2,3.4-9.7,2.4L258.6,134.5L258.6,134.5z"/>
			<path class="st5" d="M272.6,131.7l-11-3.1c-2.6-0.7-4.1-3.4-3.4-6l4.1-14.5c0.7-2.6,3.4-4.1,6-3.4l11,3.1c2.6,0.7,4.1,3.4,3.4,6
				l-4.1,14.5C277.9,131,275.2,132.5,272.6,131.7z"/>
			<path class="st6" d="M311.9,52.3c-4.6-7.7-12-12.9-20.9-14.8c-15.4-3.2-31.1,5.4-36.5,20.1c-2.9,7.8-2.7,16.3,0.6,24
				c0.4,1,0.8,1.9,1.2,2.8c3.5,8,5.7,12.8,4.2,20.7c-0.3,1.8,0.7,3.5,2.4,3.9l18.8,5.3c1.7,0.5,3.5-0.4,4.1-2.1
				c2.9-7.5,7.3-10.6,14.6-15.6l2.2-1.5c6.1-4.2,10.5-10.4,12.6-17.6C317.7,69.1,316.5,59.9,311.9,52.3L311.9,52.3z"/>
			<path class="st4" d="M278,44.9c-3.5-1.1-7,1.3-9.6,3.4c-2.7,2.1-4.9,4.8-6.6,7.8c-3.7,6.8-3.6,14.4-0.4,21.4
				c0.3,0.6,1.1,0.1,1-0.4c-1-6.4,0.7-13.5,4.3-18.9c1.5-2.2,3.5-4.3,5.7-5.8c2.3-1.6,5-2.6,6.7-5C279.7,46.5,279,45.2,278,44.9
				L278,44.9z"/>
			<path class="st7" d="M281.9,116.4l-20.1-5.7c-0.8-0.2-1.7,0.2-1.9,0.9v0c-0.2,0.7,0.3,1.5,1.1,1.8l20.1,5.7
				c0.8,0.2,1.7-0.2,1.9-0.9v0C283.2,117.4,282.7,116.6,281.9,116.4L281.9,116.4z"/>
			<path class="st7" d="M280.4,121.4l-20.1-5.7c-0.8-0.2-1.7,0.2-1.9,0.9l0,0c-0.2,0.7,0.3,1.5,1.1,1.8l20.1,5.7
				c0.8,0.2,1.7-0.2,1.9-0.9l0,0C281.8,122.4,281.3,121.7,280.4,121.4L280.4,121.4z"/>
			<path class="st7" d="M278.7,127.5l-20.1-5.7c-0.8-0.2-1.7,0.2-1.9,0.9l0,0c-0.2,0.7,0.3,1.5,1.1,1.8l20.1,5.7
				c0.8,0.2,1.7-0.2,1.9-0.9l0,0C280.1,128.5,279.5,127.7,278.7,127.5L278.7,127.5z"/>
			<g>
				<path class="st8" d="M253.4,37.8c3.4-1.8,7.6-2.2,11.3-2.2c4.3,0,9.3,0.5,12.9,3.1c3.7,2.7,5.2,6.9,5.2,11.4v32.2
					c0,4.5-1.5,8.7-5.2,11.3c-3.6,2.5-8.5,3.1-12.8,3.1c-4.3,0-9.2-0.5-12.8-3.1c-3.7-2.7-5.2-6.8-5.2-11.3v-4.7c-0.2,0-0.4,0-0.5,0
					h-0.4v12.7c0,3-2.5,5.5-5.5,5.5h-10.6c-0.6,0-1.3-0.1-1.8-0.3c-0.6,0.2-1.2,0.3-1.8,0.3H215c-1.3,0-2.4-0.4-3.4-1.1
					c-0.9,0.7-2.1,1.1-3.3,1.1h-10.6c-0.6,0-1.3-0.1-1.8-0.3c-0.6,0.2-1.2,0.3-1.8,0.3h-10.6c-0.6,0-1.3-0.1-1.8-0.3
					c-0.6,0.2-1.2,0.3-1.8,0.3H169c-0.4,0-0.8,0-1.1-0.1c-0.4,0.1-0.8,0.1-1.1,0.1h-11.1c-0.4,0-0.8,0-1.2-0.1
					c-0.4,0.1-0.8,0.1-1.2,0.1h-10.6c-1.5,0-2.9-0.6-3.9-1.6c-3.5,2-8,2.5-11.9,2.5c-3.4,0-7.2-0.3-10.4-1.8c-0.9,0.6-1.9,0.9-3,0.9
					h-11.6c-0.7,0-1.4-0.1-2-0.4c-0.6,0.2-1.3,0.4-2,0.4H87.2c-1.5,0-2.9-0.6-3.9-1.6c-3.5,2-8,2.5-11.9,2.5
					c-3.9,0-8.3-0.4-11.8-2.4c-1,0.9-2.3,1.5-3.8,1.5H45.3c-1.5,0-2.8-0.6-3.8-1.6c-2.2,1.1-4.7,1.6-7.2,1.6H17.1
					c-3,0-5.5-2.5-5.5-5.5V42.1c0-3,2.5-5.5,5.5-5.5h17.2c2.5,0,5,0.4,7.2,1.6c1-1,2.3-1.6,3.8-1.6h10.6c1.5,0,2.8,0.6,3.8,1.5
					c3.5-2,7.9-2.4,11.8-2.4c3.9,0,8.4,0.4,11.9,2.5c1-1,2.3-1.6,3.8-1.6h10.6c0.7,0,1.4,0.1,2,0.4c0.6-0.2,1.3-0.4,2-0.4h11.6
					c1.1,0,2.1,0.3,3,0.9c3.2-1.4,7-1.8,10.4-1.8c3.9,0,8.4,0.4,11.9,2.5c1-1,2.3-1.6,3.8-1.6h13.4c2.3,0,4.3,1.4,5.1,3.4
					c0.8-2,2.8-3.4,5.1-3.4h13.4c0.6,0,1.3,0.1,1.8,0.3c0.6-0.2,1.2-0.3,1.8-0.3H194c0.6,0,1.3,0.1,1.8,0.3c0.6-0.2,1.2-0.3,1.8-0.3
					h10.7c1.3,0,2.5,0.4,3.4,1.2c0.9-0.7,2.1-1.2,3.4-1.2h10.6c0.6,0,1.3,0.1,1.8,0.3c0.6-0.2,1.2-0.3,1.8-0.3h20.4
					C251.2,36.6,252.4,37.1,253.4,37.8L253.4,37.8z M246.6,57.1h-1v0.1h0.4C246.3,57.2,246.4,57.2,246.6,57.1L246.6,57.1z"/>
			</g>
			<path class="st9" d="M17.1,42.1h17.2c2.8,0,4.8,0.7,6.1,2c1.2,1.3,1.8,3.5,1.8,6.6v31.2c0,3.1-0.6,5.3-1.8,6.6
				c-1.2,1.3-3.3,2-6.1,2H17.1V42.1L17.1,42.1z M27.7,53.2v27.6H29c1.7,0,2.6-1,2.6-2.9V54.6c0-1.9-0.9-2.9-2.6-2.9h-7.2v0.7
				L27.7,53.2L27.7,53.2z M45.3,42.1h10.6v48.3H45.3V42.1z M71.5,91.3c-4.5,0-7.7-0.7-9.6-2.1c-1.9-1.4-2.9-3.7-2.9-6.9v-9h10.6v6.1
				c0,0.8,0.1,1.4,0.4,1.7c0.3,0.3,0.8,0.5,1.5,0.5s1.2-0.2,1.5-0.5c0.3-0.3,0.5-0.9,0.5-1.7v-5.4c0-0.6-0.3-1-0.8-1.4l-12.8-8.3
				C59.3,64,59,63.5,59,62.8V50.2c0-3.2,1-5.5,2.9-6.9c1.9-1.4,5.1-2.1,9.6-2.1c4.5,0,7.7,0.7,9.7,2.1c1.9,1.4,2.9,3.7,2.9,6.9v7.9
				H73.4v-5.1c0-0.8-0.2-1.3-0.5-1.6c-0.3-0.3-0.8-0.5-1.5-0.5c-0.7,0-1.2,0.2-1.5,0.5c-0.3,0.3-0.4,0.9-0.4,1.6v4.3
				c0,0.6,0.3,1.1,0.8,1.4l12.7,8.2c0.6,0.5,0.9,1,0.9,1.6v13.9c0,3.2-1,5.5-2.9,6.9C79.2,90.6,76,91.3,71.5,91.3L71.5,91.3z
				 M87.2,42.1h10.6v20l4-20h11.6l-8.2,24.3l8.2,24.1h-11.6L96,68.5h-0.7l2.5,10.6v11.3H87.2V42.1L87.2,42.1z M126.9,91.3
				c-4.5,0-7.7-0.7-9.6-2.1c-1.9-1.4-2.9-3.7-2.9-6.9V50.2c0-3.2,1-5.5,2.9-6.9c1.9-1.4,5.1-2.1,9.6-2.1c4.5,0,7.7,0.7,9.7,2.1
				c1.9,1.4,2.9,3.7,2.9,6.9v32.2c0,3.2-1,5.5-2.9,6.9C134.6,90.6,131.4,91.3,126.9,91.3z M125,79.5c0,0.8,0.1,1.4,0.4,1.7
				c0.3,0.3,0.8,0.5,1.5,0.5c0.7,0,1.2-0.2,1.5-0.5c0.3-0.3,0.5-0.9,0.5-1.7V52.9c0-0.8-0.2-1.3-0.5-1.6c-0.3-0.3-0.8-0.5-1.5-0.5
				c-0.7,0-1.2,0.2-1.5,0.5c-0.3,0.3-0.4,0.9-0.4,1.6V79.5z M142.7,42.1h13.4l8.1,40.5h0.7l-2.6-17.3l4-23.2h13.4v48.3H169V84
				l3.1-27.2h-0.7l-4.7,33.6h-11.1l-4.8-33.6h-0.7l3.1,27.2v6.4h-10.6L142.7,42.1L142.7,42.1z M183.4,42.1H194v48.3h-10.6V42.1
				L183.4,42.1z M197.7,42.1h10.7L220,75.7h0.7l-5.5-17.1V42.1h10.6v48.3H215l-11.5-33.8h-0.7l5.5,17.1v16.7h-10.6L197.7,42.1
				L197.7,42.1z M229.5,42.1h20.4v9.6h-15.7v0.7l6,0.8v9.6h5.9v9.6h-11.9v0.7l6,0.8v16.7h-10.6L229.5,42.1L229.5,42.1z M264.6,91.3
				c-4.5,0-7.7-0.7-9.6-2.1c-1.9-1.4-2.9-3.7-2.9-6.9V50.2c0-3.2,1-5.5,2.9-6.9c1.9-1.4,5.1-2.1,9.6-2.1c4.5,0,7.7,0.7,9.7,2.1
				c1.9,1.4,2.9,3.7,2.9,6.9v32.2c0,3.2-1,5.5-2.9,6.9C272.3,90.6,269.1,91.3,264.6,91.3L264.6,91.3z M262.7,79.5
				c0,0.8,0.1,1.4,0.4,1.7c0.3,0.3,0.8,0.5,1.4,0.5c0.7,0,1.2-0.2,1.5-0.5c0.3-0.3,0.5-0.9,0.5-1.7V53c0-0.8-0.2-1.3-0.5-1.6
				c-0.3-0.3-0.8-0.5-1.5-0.5c-0.7,0-1.2,0.2-1.4,0.5c-0.3,0.3-0.4,0.9-0.4,1.6V79.5z"/>
			<g>
				<path class="st8" d="M177.1,90.4c0.2,0,0.4,0,0.6,0h12.4c0.5,0,0.9,0.1,1.3,0.2c0.4-0.1,0.9-0.2,1.3-0.2h11.1
					c2.5,0,4.6,1.6,5.3,4c0.6,2,0,4.1-1.5,5.4l-4.7,27.5c0.7,1.3,0.8,2.8,0.2,4.3c-0.8,2.2-2.8,3.6-5.2,3.6h-11.4
					c-0.5,0-1-0.1-1.4-0.2c-0.5,0.1-0.9,0.2-1.4,0.2H172c-0.1,0-0.3,0-0.4,0c-0.1,0-0.3,0-0.4,0h-22.3c0,0-0.1,0-0.1,0
					c0,0-0.1,0-0.1,0h-11.4c-0.9,0-1.7-0.2-2.4-0.5c-0.7,0.4-1.6,0.5-2.4,0.5h-12.1c-0.1,0-0.3,0-0.4,0c-0.1,0-0.3,0-0.4,0H97.2
					c0,0,0,0-0.1,0c0,0,0,0-0.1,0H85.3c-1.2,0-2.4-0.4-3.3-1.1c-0.9,0.7-2.1,1.1-3.3,1.1H66.8c-2.5,0-4.6-1.6-5.3-4
					c-0.6-2.1,0.1-4.2,1.6-5.5L67.9,98c-0.5-1.2-0.6-2.6-0.1-4c0.8-2.2,2.8-3.6,5.2-3.6h11.7c0.5,0,1,0.1,1.5,0.2
					c0.5-0.1,1-0.2,1.5-0.2h12.8c0.5,0,0.9,0.1,1.3,0.2c0.4-0.1,0.7-0.1,1.1-0.1l22.1-0.1c0.2,0,0.4,0,0.7,0c0.2,0,0.4,0,0.7,0h20.6
					c1.5,0,2.9,0.6,3.8,1.6c1-0.9,2.3-1.5,3.8-1.5l22.1-0.1C176.7,90.4,176.9,90.4,177.1,90.4L177.1,90.4z"/>
			</g>
			<path class="st9" d="M84.7,95.9l-1.2,0.7l-2.7,15.3l7.3-14.1l4.8,2.6l-5.3-4.4h12.8l-1.2,0.7l-8.9,15.8l6.1,16.1l-1.8-0.9
				l2.7,2.2H85.3l1.3-0.8l-5.9-16.3l-2.8,15.8l-1.9-0.9l2.7,2.2H66.8l1.3-0.8l5.4-31.2l4.8,2.6L73,95.9L84.7,95.9L84.7,95.9z
				 M124.9,95.9l-1.3,0.7l1,3.3l-2.4,4.7l-1.4-0.8l-8.8-0.1l-0.9,5h9.7l-1.3,0.7l1.1,3.5l-2.5,4.8l-1-1h-11.5l4,1.1l-0.6,4h9.1
				l1.5-1l0.9,4l-2.3,4.3l1.3,0.8H97.2l3.8-2.8l-2.7,1l5-30.2l4.8,2.5l-5.3-4.4L124.9,95.9L124.9,95.9z M126.2,95.9h20.6l-1.3,0.7
				c1.4,0.8,2.3,2,2.7,3.4c0.5,1.4,0.5,3.5,0.1,6.1c-0.2,1.3-0.5,2.4-0.6,3.2c-0.2,0.8-0.5,1.7-0.8,2.9c-0.4,1.1-0.9,2.1-1.6,3
				c-0.7,0.9-1.5,1.7-2.4,2.4l-4.3,1l4-0.2l4.6,10.5l1.4,0.8h-11.4l-0.1-0.8l-4.1-9.4l-1.5,8.8l-1.8-0.8l2.7,2.2h-12.1l1.3-0.8
				l5.1-31.2l4.8,2.5L126.2,95.9L126.2,95.9z M135.6,103.8l-1.5,8.3h4.7l1.3-7.4l2.1-0.9H135.6L135.6,103.8z M176.5,95.9l-1.3,0.7
				l1,3.3l-2.4,4.7l-1.4-0.8l-8.8-0.1l-0.9,5h9.7l-1.3,0.7l1.1,3.5l-2.5,4.8l-1-1h-11.5l4,1.1l-0.6,4h9.1l1.5-1l0.9,4l-2.3,4.3
				l1.3,0.8h-22.3l3.8-2.8l-2.7,1l5-30.2l4.8,2.5l-5.3-4.4L176.5,95.9L176.5,95.9z M190.1,95.9l-1.2,0.8l2.7,10.7l1.7-9.6l4.9,2.6
				l-5.4-4.4h11.1l-1.2,0.7l-5.4,31.9l-1.8-0.9l2.7,2.2h-11.4l1.1-0.7l-2.8-11.4l-1.8,10.8l-2-0.9l2.7,2.2H172l1.2-0.7l5.2-31.2
				l4.7,2.5l-5.4-4.4L190.1,95.9L190.1,95.9z"/>
			<g>
				<path class="st10" d="M27.8,140.4c0,0.1,0,0.2-0.1,0.3c-0.1,0.1-0.2,0.2-0.3,0.4l-3.2,3.4l1.9,4.1c0,0.1,0.1,0.2,0.1,0.2
					c0,0.1,0,0.1,0,0.2c0,0.1,0,0.1,0,0.2c0,0-0.1,0.1-0.2,0.1s-0.2,0-0.3,0.1c-0.1,0-0.3,0-0.5,0c-0.2,0-0.4,0-0.5,0
					c-0.1,0-0.2,0-0.3-0.1c-0.1,0-0.1-0.1-0.2-0.1c0,0-0.1-0.1-0.1-0.1l-1.9-4.3l-0.9,4.4c0,0.1,0,0.1-0.1,0.1c0,0-0.1,0.1-0.2,0.1
					c-0.1,0-0.2,0-0.3,0.1c-0.1,0-0.3,0-0.4,0c-0.2,0-0.3,0-0.4,0c-0.1,0-0.2,0-0.3-0.1c-0.1,0-0.1-0.1-0.1-0.1s0-0.1,0-0.1l1.7-8.6
					c0-0.1,0-0.1,0.1-0.1c0,0,0.1-0.1,0.2-0.1c0.1,0,0.2,0,0.3-0.1c0.1,0,0.3,0,0.5,0c0.2,0,0.3,0,0.4,0c0.1,0,0.2,0,0.3,0.1
					c0.1,0,0.1,0.1,0.1,0.1s0,0.1,0,0.1l-0.8,3.9l3.4-3.9c0-0.1,0.1-0.1,0.2-0.1c0.1,0,0.1-0.1,0.2-0.1c0.1,0,0.2,0,0.3-0.1
					c0.1,0,0.3,0,0.5,0c0.2,0,0.3,0,0.5,0c0.1,0,0.2,0,0.3,0.1c0.1,0,0.1,0.1,0.1,0.1C27.7,140.3,27.8,140.4,27.8,140.4L27.8,140.4z
					 M32.5,142.7c0,0,0,0.1,0,0.2c0,0.1,0,0.2,0,0.3c0,0.1,0,0.2-0.1,0.3c0,0.1-0.1,0.2-0.1,0.3c0,0.1-0.1,0.2-0.1,0.3
					c0,0.1-0.1,0.1-0.1,0.1c0,0-0.1,0-0.1,0c0,0-0.1,0-0.1,0c-0.1,0-0.1,0-0.2-0.1c-0.1,0-0.1,0-0.2,0c-0.2,0-0.3,0.1-0.5,0.2
					c-0.2,0.1-0.4,0.3-0.5,0.5c-0.2,0.2-0.3,0.4-0.4,0.7c-0.1,0.3-0.2,0.5-0.3,0.8l-0.6,2.8c0,0,0,0.1-0.1,0.1c0,0-0.1,0.1-0.2,0.1
					c-0.1,0-0.2,0-0.3,0.1c-0.1,0-0.3,0-0.4,0c-0.2,0-0.3,0-0.4,0c-0.1,0-0.2,0-0.3-0.1c-0.1,0-0.1-0.1-0.1-0.1c0,0,0-0.1,0-0.1
					l1.3-6.3c0,0,0-0.1,0.1-0.1c0,0,0.1-0.1,0.1-0.1c0.1,0,0.1,0,0.2-0.1c0.1,0,0.2,0,0.4,0c0.1,0,0.3,0,0.4,0c0.1,0,0.2,0,0.2,0.1
					c0.1,0,0.1,0,0.1,0.1c0,0,0,0.1,0,0.1l-0.2,1c0.1-0.2,0.2-0.4,0.4-0.6c0.1-0.2,0.3-0.3,0.5-0.4c0.2-0.1,0.3-0.2,0.5-0.3
					c0.2-0.1,0.4-0.1,0.5-0.1c0.1,0,0.1,0,0.2,0c0.1,0,0.1,0,0.2,0c0.1,0,0.1,0,0.2,0.1c0,0,0.1,0,0.1,0.1
					C32.5,142.6,32.5,142.6,32.5,142.7L32.5,142.7z M39.5,140.4c0,0,0,0.1,0,0.1c0,0.1,0,0.1,0,0.2c0,0.1,0,0.2-0.1,0.3
					c0,0.1-0.1,0.2-0.1,0.3c0,0.1-0.1,0.1-0.1,0.2c-0.1,0.1-0.1,0.1-0.2,0.1h-3.3l-0.4,2.2h2.8c0.1,0,0.1,0,0.1,0.1c0,0,0,0.1,0,0.2
					c0,0,0,0.1,0,0.2c0,0.1,0,0.1,0,0.2c0,0.1,0,0.2-0.1,0.3c0,0.1-0.1,0.2-0.1,0.2c0,0.1-0.1,0.1-0.1,0.2c0,0-0.1,0.1-0.2,0.1H35
					l-0.5,2.6h3.3c0.1,0,0.1,0,0.1,0.1c0,0,0,0.1,0,0.2c0,0,0,0.1,0,0.2c0,0.1,0,0.2,0,0.2c0,0.1,0,0.2-0.1,0.3
					c0,0.1-0.1,0.2-0.1,0.3c0,0.1-0.1,0.1-0.1,0.2c0,0-0.1,0.1-0.2,0.1h-4.6c-0.1,0-0.1,0-0.2,0c-0.1,0-0.1-0.1-0.2-0.1
					c0-0.1-0.1-0.1-0.1-0.2c0-0.1,0-0.2,0-0.3l1.6-8c0-0.2,0.1-0.4,0.3-0.4c0.1-0.1,0.3-0.1,0.4-0.1h4.5
					C39.4,140.2,39.5,140.2,39.5,140.4L39.5,140.4z M45,149.1c0,0.1-0.1,0.2-0.2,0.2c-0.1,0-0.3,0.1-0.6,0.1c-0.1,0-0.3,0-0.4,0
					c-0.1,0-0.2,0-0.2,0c-0.1,0-0.1,0-0.1-0.1c0,0,0-0.1,0-0.1l0.2-1c-0.1,0.2-0.2,0.3-0.3,0.5c-0.2,0.2-0.3,0.3-0.5,0.5
					c-0.2,0.1-0.4,0.2-0.7,0.3c-0.3,0.1-0.5,0.1-0.8,0.1c-0.4,0-0.7-0.1-0.9-0.2c-0.3-0.1-0.5-0.3-0.6-0.5c-0.1-0.2-0.3-0.5-0.3-0.8
					c-0.1-0.3-0.1-0.6-0.1-0.9c0-0.3,0-0.6,0.1-1c0.1-0.4,0.1-0.7,0.3-1c0.1-0.3,0.3-0.7,0.5-1c0.2-0.3,0.4-0.6,0.7-0.9
					c0.3-0.3,0.5-0.4,0.9-0.6c0.3-0.1,0.7-0.2,1.1-0.2c0.4,0,0.7,0.1,1,0.2c0.3,0.2,0.6,0.4,0.8,0.7l0.1-0.6c0-0.1,0.1-0.2,0.2-0.2
					c0.1,0,0.3-0.1,0.6-0.1c0.1,0,0.3,0,0.3,0c0.1,0,0.2,0,0.2,0.1c0.1,0,0.1,0,0.1,0.1c0,0,0,0.1,0,0.1L45,149.1L45,149.1z
					 M44.1,144.6c-0.2-0.3-0.3-0.4-0.5-0.6c-0.2-0.1-0.4-0.2-0.7-0.2c-0.2,0-0.4,0-0.5,0.1c-0.2,0.1-0.3,0.2-0.4,0.4
					c-0.1,0.2-0.2,0.3-0.3,0.5c-0.1,0.2-0.2,0.4-0.2,0.6c-0.1,0.2-0.1,0.4-0.1,0.7c0,0.2,0,0.4,0,0.6c0,0.1,0,0.3,0,0.4
					c0,0.1,0.1,0.2,0.1,0.3c0.1,0.1,0.1,0.2,0.2,0.2c0.1,0.1,0.2,0.1,0.4,0.1c0.2,0,0.4-0.1,0.6-0.2c0.2-0.1,0.4-0.3,0.6-0.5
					c0.2-0.2,0.4-0.5,0.5-0.7c0.1-0.3,0.3-0.6,0.3-0.9L44.1,144.6L44.1,144.6z M53.4,149.1c0,0,0,0.1-0.1,0.1c0,0-0.1,0.1-0.2,0.1
					c-0.1,0-0.2,0-0.3,0.1c-0.1,0-0.3,0-0.4,0c-0.2,0-0.3,0-0.4,0c-0.1,0-0.2,0-0.3-0.1c-0.1,0-0.1-0.1-0.1-0.1c0,0,0-0.1,0-0.1
					l1-5.1h-2.8l-0.6,3c0,0.1,0,0.2,0,0.3s0,0.2,0,0.2c0,0.2,0,0.3,0.1,0.4c0.1,0.1,0.2,0.1,0.4,0.1c0.1,0,0.2,0,0.3,0
					s0.1,0,0.2-0.1c0.1,0,0.1,0,0.2-0.1c0,0,0.1,0,0.1,0c0,0,0.1,0,0.1,0.1c0,0,0,0.1,0,0.2c0,0.1,0,0.2,0,0.3c0,0.1,0,0.2-0.1,0.3
					c0,0.1-0.1,0.2-0.1,0.3c0,0.1-0.1,0.2-0.1,0.2c0,0-0.1,0.1-0.2,0.1c-0.1,0-0.2,0.1-0.3,0.1s-0.2,0.1-0.4,0.1c-0.1,0-0.3,0-0.4,0
					c-0.3,0-0.5,0-0.7-0.1c-0.2-0.1-0.4-0.2-0.5-0.3c-0.1-0.1-0.3-0.3-0.3-0.5c-0.1-0.2-0.1-0.4-0.1-0.7c0-0.1,0-0.1,0-0.2
					c0-0.1,0-0.1,0-0.2c0-0.1,0-0.2,0-0.2c0-0.1,0-0.1,0-0.2l0.6-3.1h-0.8c-0.1,0-0.1,0-0.1-0.1c0,0,0-0.1,0-0.2c0-0.1,0-0.2,0-0.3
					c0-0.1,0-0.3,0.1-0.4c0-0.1,0.1-0.2,0.1-0.3c0.1-0.1,0.1-0.1,0.2-0.1h0.8l0.3-1.4c0,0,0-0.1,0.1-0.1c0,0,0.1-0.1,0.2-0.1
					c0.1,0,0.2,0,0.3-0.1c0.1,0,0.3,0,0.4,0c0.2,0,0.3,0,0.4,0c0.1,0,0.2,0,0.3,0.1c0.1,0,0.1,0.1,0.1,0.1c0,0,0,0.1,0,0.1l-0.3,1.4
					h4.1c0.2,0,0.3,0,0.4,0.1c0.1,0.1,0.1,0.2,0,0.4L53.4,149.1L53.4,149.1z M55.3,140.6c0,0.2-0.1,0.3-0.1,0.4
					c-0.1,0.1-0.1,0.2-0.2,0.3c-0.1,0.1-0.2,0.1-0.3,0.2c-0.1,0-0.3,0-0.5,0c-0.2,0-0.4,0-0.5,0c-0.1,0-0.2-0.1-0.3-0.2
					c-0.1-0.1-0.1-0.2-0.1-0.3c0-0.1,0-0.3,0-0.4c0-0.2,0.1-0.3,0.1-0.4c0.1-0.1,0.1-0.2,0.2-0.3c0.1-0.1,0.2-0.1,0.3-0.2
					c0.1,0,0.3-0.1,0.5-0.1c0.2,0,0.4,0,0.5,0.1c0.1,0,0.2,0.1,0.3,0.2c0.1,0.1,0.1,0.2,0.1,0.3C55.3,140.3,55.3,140.5,55.3,140.6
					L55.3,140.6z M60.8,139.9c0,0,0,0.1,0,0.1c0,0.1,0,0.1,0,0.2c0,0.1,0,0.2,0,0.2c0,0.1,0,0.2-0.1,0.2c0,0.1-0.1,0.1-0.1,0.2
					c0,0-0.1,0.1-0.1,0.1c0,0-0.1,0-0.1,0c0,0-0.1,0-0.2,0c-0.1,0-0.1,0-0.2,0c-0.1,0-0.2,0-0.2,0c-0.1,0-0.3,0-0.4,0.1
					c-0.1,0-0.2,0.1-0.3,0.2c-0.1,0.1-0.1,0.2-0.2,0.4c-0.1,0.1-0.1,0.3-0.1,0.5l-0.1,0.5h1.1c0.1,0,0.1,0,0.1,0.1c0,0,0,0.1,0,0.2
					c0,0,0,0.1,0,0.2c0,0.1,0,0.2,0,0.2c0,0.1,0,0.2-0.1,0.3c0,0.1-0.1,0.2-0.1,0.2c0,0.1-0.1,0.1-0.1,0.2c0,0-0.1,0.1-0.1,0.1h-1.1
					l-1.1,5.5c-0.1,0.4-0.2,0.7-0.3,1c-0.1,0.3-0.3,0.5-0.5,0.7c-0.2,0.2-0.5,0.4-0.8,0.5c-0.3,0.1-0.6,0.2-1,0.2
					c-0.2,0-0.5,0-0.6-0.1c-0.2,0-0.3-0.1-0.3-0.1c0,0,0-0.1,0-0.1c0,0,0-0.1,0-0.1c0,0,0-0.1,0-0.1c0-0.1,0-0.1,0-0.2
					c0-0.1,0-0.2,0.1-0.2c0-0.1,0-0.2,0.1-0.2c0-0.1,0.1-0.1,0.1-0.2c0,0,0.1-0.1,0.1-0.1c0,0,0.1,0,0.1,0c0,0,0.1,0,0.1,0
					c0,0,0.1,0,0.1,0c0,0,0.1,0,0.2,0c0.2,0,0.3,0,0.4-0.1c0.1,0,0.2-0.1,0.3-0.2c0.1-0.1,0.1-0.2,0.2-0.4c0.1-0.1,0.1-0.3,0.1-0.5
					l1.1-5.3h-0.8c-0.1,0-0.1,0-0.1-0.1c0,0,0-0.1,0-0.2c0,0,0-0.1,0-0.2c0-0.1,0-0.2,0-0.2c0-0.1,0-0.2,0.1-0.3
					c0-0.1,0.1-0.2,0.1-0.2c0-0.1,0.1-0.1,0.1-0.2c0,0,0.1-0.1,0.2-0.1h0.8l0.1-0.7c0.1-0.4,0.2-0.7,0.3-1c0.1-0.3,0.3-0.6,0.5-0.8
					c0.2-0.2,0.5-0.4,0.8-0.5c0.3-0.1,0.6-0.2,1-0.2c0.1,0,0.2,0,0.4,0c0.1,0,0.2,0,0.3,0.1c0.1,0,0.2,0,0.3,0.1s0.1,0.1,0.2,0.1
					c0,0,0,0.1,0.1,0.1C60.8,139.8,60.8,139.8,60.8,139.9L60.8,139.9z M70.8,142.2c0,0.3,0,0.6-0.1,0.9c-0.1,0.3-0.2,0.6-0.4,0.8
					c-0.2,0.3-0.4,0.5-0.7,0.7c-0.3,0.2-0.6,0.4-1,0.5c0.2,0.1,0.4,0.3,0.6,0.5c0.2,0.3,0.3,0.6,0.4,1.1l0.4,1.9
					c0,0.1,0,0.2,0.1,0.3c0,0.1,0,0.2,0,0.2c0,0,0,0.1,0,0.1c0,0-0.1,0.1-0.2,0.1c-0.1,0-0.2,0-0.3,0c-0.1,0-0.3,0-0.5,0
					c-0.2,0-0.4,0-0.5,0c-0.1,0-0.2,0-0.3-0.1c-0.1,0-0.1-0.1-0.1-0.1c0,0,0-0.1,0-0.1l-0.3-2c0-0.2-0.1-0.4-0.2-0.6
					c-0.1-0.2-0.1-0.3-0.2-0.4c-0.1-0.1-0.2-0.2-0.4-0.3c-0.1-0.1-0.3-0.1-0.5-0.1h-0.6L65,149c0,0,0,0.1-0.1,0.1
					c0,0-0.1,0.1-0.2,0.1c-0.1,0-0.2,0-0.3,0.1c-0.1,0-0.3,0-0.5,0c-0.2,0-0.3,0-0.4,0c-0.1,0-0.2,0-0.3-0.1c-0.1,0-0.1-0.1-0.1-0.1
					c0,0,0-0.1,0-0.1l1.7-8.3c0-0.2,0.1-0.4,0.3-0.4c0.1-0.1,0.3-0.1,0.5-0.1H68c0.4,0,0.8,0,1.2,0.1c0.3,0.1,0.6,0.2,0.9,0.4
					c0.2,0.2,0.4,0.4,0.6,0.6C70.7,141.5,70.8,141.8,70.8,142.2L70.8,142.2z M68.8,142.5c0-0.1,0-0.3-0.1-0.4c0-0.1-0.1-0.2-0.2-0.3
					c-0.1-0.1-0.2-0.1-0.4-0.2c-0.2,0-0.3-0.1-0.6-0.1h-1.1l-0.5,2.6h0.9c0.4,0,0.7-0.1,0.9-0.2c0.2-0.1,0.4-0.2,0.6-0.4
					c0.1-0.2,0.3-0.3,0.3-0.5C68.8,142.9,68.8,142.7,68.8,142.5L68.8,142.5z M77.5,144.1c0,0.3-0.1,0.6-0.2,0.9
					c-0.2,0.3-0.4,0.5-0.7,0.7c-0.3,0.2-0.7,0.3-1.2,0.4c-0.5,0.1-1.1,0.2-1.8,0.2H73c0,0.1,0,0.2,0,0.3c0,0.1,0,0.2,0,0.3
					c0,0.4,0.1,0.7,0.3,0.9c0.2,0.2,0.5,0.3,0.9,0.3c0.3,0,0.6,0,0.8-0.1c0.2,0,0.5-0.1,0.6-0.1c0.2-0.1,0.3-0.1,0.5-0.1
					c0.1,0,0.2-0.1,0.3-0.1c0.1,0,0.1,0,0.1,0c0,0,0,0.1,0,0.2c0,0.1,0,0.2,0,0.3c0,0.1,0,0.2-0.1,0.3c0,0.1-0.1,0.2-0.1,0.3
					c0,0.1-0.1,0.2-0.1,0.2c-0.1,0.1-0.2,0.1-0.3,0.2c-0.1,0.1-0.3,0.1-0.5,0.2c-0.2,0-0.5,0.1-0.7,0.1c-0.3,0-0.5,0-0.8,0
					c-0.5,0-0.8,0-1.2-0.1c-0.3-0.1-0.6-0.2-0.8-0.4c-0.2-0.2-0.4-0.4-0.5-0.7c-0.1-0.3-0.2-0.7-0.2-1.1c0-0.3,0-0.7,0.1-1
					c0.1-0.4,0.2-0.7,0.3-1.1c0.1-0.4,0.3-0.7,0.5-1c0.2-0.3,0.5-0.6,0.8-0.8c0.3-0.2,0.6-0.4,1-0.6c0.4-0.1,0.8-0.2,1.3-0.2
					c0.4,0,0.8,0.1,1.1,0.2c0.3,0.1,0.6,0.2,0.8,0.4c0.2,0.2,0.3,0.4,0.4,0.6C77.5,143.7,77.5,143.9,77.5,144.1L77.5,144.1z
					 M75.8,144.3c0-0.2-0.1-0.3-0.2-0.5c-0.1-0.1-0.4-0.2-0.6-0.2c-0.2,0-0.4,0-0.6,0.1c-0.2,0.1-0.3,0.2-0.5,0.3
					c-0.1,0.1-0.3,0.3-0.4,0.5c-0.1,0.2-0.2,0.4-0.2,0.6h0.6c0.4,0,0.7,0,0.9-0.1c0.3,0,0.5-0.1,0.6-0.2c0.2-0.1,0.3-0.2,0.3-0.3
					C75.8,144.5,75.8,144.4,75.8,144.3L75.8,144.3z M83.3,143c0,0.1,0,0.1,0,0.3c0,0.1,0,0.2-0.1,0.3c0,0.1-0.1,0.2-0.1,0.3
					c0,0.1-0.1,0.1-0.1,0.1c-0.1,0-0.1,0-0.2-0.1c-0.1,0-0.2-0.1-0.3-0.1c-0.1-0.1-0.3-0.1-0.4-0.1c-0.2,0-0.3-0.1-0.6-0.1
					c-0.2,0-0.3,0-0.4,0.1c-0.1,0-0.2,0.1-0.3,0.2c-0.1,0.1-0.1,0.2-0.2,0.3c0,0.1-0.1,0.2-0.1,0.3c0,0.1,0.1,0.3,0.2,0.4
					c0.1,0.1,0.3,0.2,0.4,0.3c0.2,0.1,0.4,0.2,0.6,0.3c0.2,0.1,0.4,0.2,0.6,0.4c0.2,0.1,0.3,0.3,0.4,0.5c0.1,0.2,0.2,0.5,0.2,0.8
					c0,0.4-0.1,0.7-0.2,1c-0.1,0.3-0.3,0.6-0.6,0.8c-0.3,0.2-0.6,0.4-1,0.5c-0.4,0.1-0.8,0.2-1.3,0.2c-0.2,0-0.4,0-0.6,0
					c-0.2,0-0.4-0.1-0.6-0.1c-0.2,0-0.3-0.1-0.4-0.2c-0.1-0.1-0.2-0.1-0.3-0.2c0,0-0.1-0.1-0.1-0.1c0,0,0-0.1,0-0.2c0,0,0-0.1,0-0.2
					c0-0.1,0-0.1,0-0.2c0-0.1,0-0.2,0.1-0.2c0-0.1,0-0.2,0.1-0.2c0-0.1,0.1-0.1,0.1-0.2c0,0,0.1-0.1,0.1-0.1c0.1,0,0.1,0,0.2,0.1
					c0.1,0.1,0.2,0.1,0.3,0.2c0.1,0.1,0.3,0.1,0.5,0.2c0.2,0.1,0.4,0.1,0.7,0.1c0.2,0,0.4,0,0.5-0.1c0.1,0,0.3-0.1,0.4-0.2
					c0.1-0.1,0.2-0.2,0.2-0.3c0-0.1,0.1-0.2,0.1-0.3c0-0.2-0.1-0.3-0.2-0.4c-0.1-0.1-0.3-0.2-0.4-0.3c-0.2-0.1-0.4-0.2-0.6-0.3
					c-0.2-0.1-0.4-0.2-0.6-0.3c-0.2-0.1-0.3-0.3-0.4-0.5c-0.1-0.2-0.2-0.5-0.2-0.8c0-0.3,0.1-0.6,0.2-0.9c0.1-0.3,0.3-0.5,0.6-0.8
					c0.2-0.2,0.5-0.4,0.9-0.5c0.3-0.1,0.7-0.2,1.2-0.2c0.2,0,0.4,0,0.6,0c0.2,0,0.4,0.1,0.5,0.1c0.1,0,0.3,0.1,0.4,0.1
					c0.1,0.1,0.2,0.1,0.2,0.2C83.2,142.8,83.3,142.9,83.3,143L83.3,143z M90.7,144.8c0,0.3,0,0.6-0.1,1c-0.1,0.4-0.1,0.7-0.3,1.1
					c-0.1,0.3-0.3,0.7-0.5,1c-0.2,0.3-0.4,0.6-0.7,0.9c-0.3,0.2-0.5,0.4-0.9,0.6c-0.3,0.1-0.7,0.2-1.1,0.2c-0.2,0-0.4,0-0.5-0.1
					c-0.2,0-0.3-0.1-0.5-0.2c-0.1-0.1-0.3-0.1-0.4-0.2c-0.1-0.1-0.2-0.2-0.3-0.3l-0.6,2.8c0,0,0,0.1-0.1,0.1c0,0-0.1,0.1-0.2,0.1
					c-0.1,0-0.2,0-0.3,0.1c-0.1,0-0.3,0-0.4,0c-0.2,0-0.3,0-0.4,0c-0.1,0-0.2,0-0.3-0.1c-0.1,0-0.1-0.1-0.1-0.1c0,0,0-0.1,0-0.1
					l1.8-8.8c0-0.1,0.1-0.2,0.2-0.2c0.1,0,0.3-0.1,0.6-0.1c0.1,0,0.3,0,0.4,0c0.1,0,0.2,0,0.2,0.1c0.1,0,0.1,0,0.1,0.1s0,0.1,0,0.1
					l-0.2,1c0.1-0.2,0.2-0.3,0.3-0.5c0.2-0.2,0.3-0.3,0.5-0.5c0.2-0.1,0.5-0.3,0.7-0.3s0.5-0.1,0.8-0.1c0.4,0,0.7,0.1,0.9,0.2
					c0.2,0.1,0.4,0.3,0.6,0.5c0.2,0.2,0.3,0.5,0.3,0.8C90.7,144.1,90.7,144.4,90.7,144.8L90.7,144.8z M88.9,144.9c0-0.2,0-0.3,0-0.4
					c0-0.1-0.1-0.2-0.1-0.3c-0.1-0.1-0.1-0.2-0.2-0.2c-0.1,0-0.2-0.1-0.3-0.1c-0.2,0-0.4,0.1-0.6,0.2c-0.2,0.1-0.4,0.3-0.6,0.5
					c-0.2,0.2-0.4,0.5-0.5,0.7c-0.1,0.3-0.2,0.6-0.3,0.9l-0.2,1c0.2,0.3,0.3,0.5,0.5,0.6c0.2,0.1,0.4,0.2,0.7,0.2
					c0.2,0,0.4,0,0.5-0.1c0.2-0.1,0.3-0.2,0.4-0.4c0.1-0.2,0.2-0.3,0.3-0.5c0.1-0.2,0.2-0.4,0.2-0.6c0.1-0.2,0.1-0.5,0.1-0.7
					C88.9,145.3,88.9,145.1,88.9,144.9L88.9,144.9z"/>
				<path class="st10" d="M98.3,144.9c0,0.3,0,0.7-0.1,1c-0.1,0.4-0.2,0.7-0.3,1c-0.1,0.3-0.3,0.7-0.5,1c-0.2,0.3-0.5,0.6-0.8,0.8
					c-0.3,0.2-0.6,0.4-1,0.5c-0.4,0.1-0.8,0.2-1.3,0.2c-0.5,0-0.9-0.1-1.2-0.2c-0.3-0.1-0.6-0.3-0.9-0.5s-0.4-0.5-0.5-0.8
					c-0.1-0.3-0.2-0.7-0.2-1.1c0-0.3,0-0.7,0.1-1c0.1-0.4,0.2-0.7,0.3-1c0.1-0.3,0.3-0.7,0.5-1c0.2-0.3,0.5-0.6,0.8-0.8
					c0.3-0.2,0.6-0.4,1-0.5c0.4-0.1,0.8-0.2,1.3-0.2c0.5,0,0.9,0.1,1.2,0.2c0.3,0.1,0.6,0.3,0.9,0.5c0.2,0.2,0.4,0.5,0.5,0.8
					C98.3,144.1,98.3,144.5,98.3,144.9L98.3,144.9z M96.5,145c0-0.2,0-0.4-0.1-0.5c0-0.2-0.1-0.3-0.2-0.4c-0.1-0.1-0.2-0.2-0.4-0.2
					c-0.1-0.1-0.3-0.1-0.5-0.1c-0.2,0-0.4,0-0.6,0.1c-0.2,0.1-0.4,0.2-0.5,0.4c-0.1,0.2-0.3,0.3-0.4,0.5c-0.1,0.2-0.2,0.4-0.3,0.6
					c-0.1,0.2-0.1,0.5-0.2,0.7c0,0.2-0.1,0.5-0.1,0.7c0,0.2,0,0.4,0.1,0.5c0,0.2,0.1,0.3,0.2,0.4c0.1,0.1,0.2,0.2,0.4,0.2
					c0.1,0.1,0.3,0.1,0.5,0.1c0.2,0,0.4,0,0.6-0.1c0.2-0.1,0.4-0.2,0.5-0.4c0.1-0.2,0.3-0.3,0.4-0.5c0.1-0.2,0.2-0.4,0.3-0.7
					c0.1-0.2,0.1-0.5,0.2-0.7C96.5,145.4,96.5,145.2,96.5,145L96.5,145z M105.8,144.2c0,0.2,0,0.3,0,0.5c0,0.2,0,0.3-0.1,0.5
					l-0.8,3.9c0,0,0,0.1-0.1,0.1c0,0-0.1,0.1-0.2,0.1c-0.1,0-0.2,0-0.3,0.1c-0.1,0-0.3,0-0.4,0c-0.2,0-0.3,0-0.4,0
					c-0.1,0-0.2,0-0.3-0.1c-0.1,0-0.1-0.1-0.1-0.1c0,0,0-0.1,0-0.1l0.8-3.8c0-0.1,0-0.2,0.1-0.3c0-0.1,0-0.2,0-0.3
					c0-0.2,0-0.4-0.1-0.5c-0.1-0.1-0.2-0.2-0.5-0.2c-0.2,0-0.4,0.1-0.6,0.2c-0.2,0.1-0.4,0.3-0.6,0.5c-0.2,0.2-0.4,0.5-0.5,0.7
					c-0.1,0.3-0.2,0.6-0.3,0.9l-0.6,2.9c0,0,0,0.1-0.1,0.1c0,0-0.1,0.1-0.2,0.1c-0.1,0-0.2,0-0.3,0.1c-0.1,0-0.3,0-0.4,0
					c-0.2,0-0.3,0-0.4,0c-0.1,0-0.2,0-0.3-0.1c-0.1,0-0.1-0.1-0.1-0.1c0,0,0-0.1,0-0.1l1.3-6.3c0,0,0-0.1,0.1-0.1
					c0,0,0.1-0.1,0.1-0.1c0.1,0,0.1,0,0.2-0.1c0.1,0,0.2,0,0.4,0c0.1,0,0.3,0,0.4,0c0.1,0,0.2,0,0.2,0.1c0.1,0,0.1,0,0.1,0.1
					c0,0,0,0.1,0,0.1l-0.2,1c0.1-0.2,0.2-0.3,0.4-0.5c0.2-0.2,0.4-0.3,0.6-0.5c0.2-0.1,0.4-0.2,0.7-0.3c0.3-0.1,0.5-0.1,0.8-0.1
					c0.3,0,0.6,0,0.8,0.1c0.2,0.1,0.4,0.2,0.5,0.4c0.1,0.2,0.2,0.4,0.3,0.6C105.8,143.7,105.8,143.9,105.8,144.2L105.8,144.2z
					 M111.8,143c0,0.1,0,0.1,0,0.3c0,0.1,0,0.2-0.1,0.3c0,0.1-0.1,0.2-0.1,0.3c0,0.1-0.1,0.1-0.1,0.1c-0.1,0-0.1,0-0.2-0.1
					c-0.1,0-0.2-0.1-0.3-0.1c-0.1-0.1-0.3-0.1-0.4-0.1c-0.2,0-0.3-0.1-0.6-0.1c-0.2,0-0.3,0-0.4,0.1c-0.1,0-0.2,0.1-0.3,0.2
					c-0.1,0.1-0.1,0.2-0.2,0.3c0,0.1-0.1,0.2-0.1,0.3c0,0.1,0.1,0.3,0.2,0.4c0.1,0.1,0.3,0.2,0.4,0.3c0.2,0.1,0.4,0.2,0.6,0.3
					c0.2,0.1,0.4,0.2,0.6,0.4c0.2,0.1,0.3,0.3,0.4,0.5c0.1,0.2,0.2,0.5,0.2,0.8c0,0.4-0.1,0.7-0.2,1c-0.1,0.3-0.3,0.6-0.6,0.8
					c-0.3,0.2-0.6,0.4-1,0.5c-0.4,0.1-0.8,0.2-1.3,0.2c-0.2,0-0.4,0-0.6,0c-0.2,0-0.4-0.1-0.6-0.1c-0.2,0-0.3-0.1-0.4-0.2
					c-0.1-0.1-0.2-0.1-0.3-0.2c0,0-0.1-0.1-0.1-0.1c0,0,0-0.1,0-0.2c0,0,0-0.1,0-0.2c0-0.1,0-0.1,0-0.2c0-0.1,0-0.2,0.1-0.2
					c0-0.1,0-0.2,0.1-0.2c0-0.1,0.1-0.1,0.1-0.2c0,0,0.1-0.1,0.1-0.1c0.1,0,0.1,0,0.2,0.1c0.1,0.1,0.2,0.1,0.3,0.2
					c0.1,0.1,0.3,0.1,0.5,0.2c0.2,0.1,0.4,0.1,0.7,0.1c0.2,0,0.4,0,0.5-0.1c0.1,0,0.3-0.1,0.4-0.2c0.1-0.1,0.2-0.2,0.2-0.3
					c0-0.1,0.1-0.2,0.1-0.3c0-0.2-0.1-0.3-0.2-0.4c-0.1-0.1-0.3-0.2-0.4-0.3s-0.4-0.2-0.6-0.3c-0.2-0.1-0.4-0.2-0.6-0.3
					c-0.2-0.1-0.3-0.3-0.4-0.5c-0.1-0.2-0.2-0.5-0.2-0.8c0-0.3,0.1-0.6,0.2-0.9c0.1-0.3,0.3-0.5,0.6-0.8c0.2-0.2,0.5-0.4,0.9-0.5
					c0.3-0.1,0.7-0.2,1.2-0.2c0.2,0,0.4,0,0.6,0c0.2,0,0.4,0.1,0.5,0.1c0.1,0,0.3,0.1,0.4,0.1c0.1,0.1,0.2,0.1,0.2,0.2
					C111.8,142.8,111.8,142.9,111.8,143L111.8,143z M115.9,140.6c0,0.2-0.1,0.3-0.1,0.4c-0.1,0.1-0.1,0.2-0.2,0.3
					c-0.1,0.1-0.2,0.1-0.3,0.2c-0.1,0-0.3,0-0.5,0c-0.2,0-0.4,0-0.5,0c-0.1,0-0.2-0.1-0.3-0.2c-0.1-0.1-0.1-0.2-0.1-0.3
					c0-0.1,0-0.3,0-0.4c0-0.2,0.1-0.3,0.1-0.4c0.1-0.1,0.1-0.2,0.2-0.3c0.1-0.1,0.2-0.1,0.3-0.2c0.1,0,0.3-0.1,0.5-0.1
					c0.2,0,0.4,0,0.5,0.1c0.1,0,0.2,0.1,0.3,0.2c0.1,0.1,0.1,0.2,0.1,0.3C116,140.3,116,140.5,115.9,140.6L115.9,140.6z
					 M114.1,149.1c0,0,0,0.1-0.1,0.1c0,0-0.1,0.1-0.2,0.1c-0.1,0-0.2,0-0.3,0.1c-0.1,0-0.3,0-0.4,0c-0.2,0-0.3,0-0.4,0
					c-0.1,0-0.2,0-0.3-0.1c-0.1,0-0.1-0.1-0.1-0.1c0,0,0-0.1,0-0.1l1.2-6.3c0,0,0-0.1,0.1-0.1c0,0,0.1-0.1,0.2-0.1
					c0.1,0,0.2,0,0.3-0.1c0.1,0,0.3,0,0.4,0c0.2,0,0.3,0,0.4,0c0.1,0,0.2,0,0.3,0.1c0.1,0,0.1,0.1,0.1,0.1c0,0,0,0.1,0,0.1
					L114.1,149.1L114.1,149.1z M121.5,139.9c0,0,0,0.1,0,0.1c0,0.1,0,0.1,0,0.2c0,0.1,0,0.2,0,0.2c0,0.1,0,0.2-0.1,0.2
					c0,0.1-0.1,0.1-0.1,0.2c0,0-0.1,0.1-0.1,0.1c0,0-0.1,0-0.1,0c0,0-0.1,0-0.2,0c-0.1,0-0.1,0-0.2,0c-0.1,0-0.2,0-0.2,0
					c-0.1,0-0.3,0-0.4,0.1c-0.1,0-0.2,0.1-0.3,0.2c-0.1,0.1-0.1,0.2-0.2,0.4c-0.1,0.1-0.1,0.3-0.1,0.5l-0.1,0.5h1.1
					c0.1,0,0.1,0,0.1,0.1c0,0,0,0.1,0,0.2c0,0,0,0.1,0,0.2c0,0.1,0,0.2,0,0.2c0,0.1,0,0.2-0.1,0.3c0,0.1-0.1,0.2-0.1,0.2
					c0,0.1-0.1,0.1-0.1,0.2c0,0-0.1,0.1-0.1,0.1H119l-1.1,5.5c-0.1,0.4-0.2,0.7-0.3,1c-0.1,0.3-0.3,0.5-0.5,0.7s-0.5,0.4-0.8,0.5
					c-0.3,0.1-0.6,0.2-1,0.2c-0.2,0-0.5,0-0.6-0.1c-0.2,0-0.3-0.1-0.3-0.1c0,0,0-0.1,0-0.1c0,0,0-0.1,0-0.1c0,0,0-0.1,0-0.1
					c0-0.1,0-0.1,0-0.2c0-0.1,0-0.2,0.1-0.2c0-0.1,0-0.2,0.1-0.2c0-0.1,0.1-0.1,0.1-0.2c0,0,0.1-0.1,0.1-0.1c0,0,0.1,0,0.1,0
					c0,0,0.1,0,0.1,0c0,0,0.1,0,0.1,0c0,0,0.1,0,0.2,0c0.2,0,0.3,0,0.4-0.1c0.1,0,0.2-0.1,0.3-0.2c0.1-0.1,0.1-0.2,0.2-0.4
					c0.1-0.1,0.1-0.3,0.1-0.5l1.1-5.3h-0.8c-0.1,0-0.1,0-0.1-0.1c0,0,0-0.1,0-0.2c0,0,0-0.1,0-0.2c0-0.1,0-0.2,0-0.2
					c0-0.1,0-0.2,0.1-0.3c0-0.1,0.1-0.2,0.1-0.2c0-0.1,0.1-0.1,0.1-0.2c0,0,0.1-0.1,0.2-0.1h0.8l0.1-0.7c0.1-0.4,0.2-0.7,0.3-1
					c0.1-0.3,0.3-0.6,0.5-0.8c0.2-0.2,0.5-0.4,0.8-0.5c0.3-0.1,0.6-0.2,1-0.2c0.1,0,0.2,0,0.4,0c0.1,0,0.2,0,0.3,0.1
					c0.1,0,0.2,0,0.3,0.1s0.1,0.1,0.2,0.1c0,0,0,0.1,0.1,0.1C121.5,139.8,121.5,139.8,121.5,139.9L121.5,139.9z M130.9,140.4
					c0,0,0,0.1,0,0.1c0,0.1,0,0.1,0,0.2c0,0.1,0,0.2-0.1,0.3c0,0.1-0.1,0.2-0.1,0.3c0,0.1-0.1,0.1-0.1,0.2c-0.1,0.1-0.1,0.1-0.2,0.1
					h-3.3l-0.4,2.2h2.8c0.1,0,0.1,0,0.1,0.1c0,0,0,0.1,0,0.2c0,0,0,0.1,0,0.2c0,0.1,0,0.1,0,0.2c0,0.1,0,0.2-0.1,0.3
					c0,0.1-0.1,0.2-0.1,0.2c0,0.1-0.1,0.1-0.1,0.2c0,0-0.1,0.1-0.2,0.1h-2.8l-0.5,2.6h3.3c0.1,0,0.1,0,0.1,0.1c0,0,0,0.1,0,0.2
					c0,0,0,0.1,0,0.2c0,0.1,0,0.2,0,0.2c0,0.1,0,0.2-0.1,0.3c0,0.1-0.1,0.2-0.1,0.3c0,0.1-0.1,0.1-0.1,0.2c0,0-0.1,0.1-0.2,0.1h-4.6
					c-0.1,0-0.1,0-0.2,0c-0.1,0-0.1-0.1-0.2-0.1c0-0.1-0.1-0.1-0.1-0.2c0-0.1,0-0.2,0-0.3l1.6-8c0-0.2,0.1-0.4,0.3-0.4
					c0.1-0.1,0.3-0.1,0.4-0.1h4.5C130.8,140.2,130.9,140.2,130.9,140.4L130.9,140.4z M137.5,144.2c0,0.2,0,0.3,0,0.5
					c0,0.2,0,0.3-0.1,0.5l-0.8,3.9c0,0,0,0.1-0.1,0.1c0,0-0.1,0.1-0.2,0.1c-0.1,0-0.2,0-0.3,0.1c-0.1,0-0.3,0-0.4,0
					c-0.2,0-0.3,0-0.4,0c-0.1,0-0.2,0-0.3-0.1c-0.1,0-0.1-0.1-0.1-0.1c0,0,0-0.1,0-0.1l0.8-3.8c0-0.1,0-0.2,0.1-0.3
					c0-0.1,0-0.2,0-0.3c0-0.2,0-0.4-0.1-0.5c-0.1-0.1-0.2-0.2-0.5-0.2c-0.2,0-0.4,0.1-0.6,0.2c-0.2,0.1-0.4,0.3-0.6,0.5
					s-0.4,0.5-0.5,0.7c-0.1,0.3-0.2,0.6-0.3,0.9l-0.6,2.9c0,0,0,0.1-0.1,0.1c0,0-0.1,0.1-0.2,0.1c-0.1,0-0.2,0-0.3,0.1
					c-0.1,0-0.3,0-0.4,0c-0.2,0-0.3,0-0.4,0c-0.1,0-0.2,0-0.3-0.1c-0.1,0-0.1-0.1-0.1-0.1c0,0,0-0.1,0-0.1l1.3-6.3
					c0,0,0-0.1,0.1-0.1c0,0,0.1-0.1,0.1-0.1c0.1,0,0.1,0,0.2-0.1c0.1,0,0.2,0,0.4,0c0.1,0,0.3,0,0.4,0c0.1,0,0.2,0,0.2,0.1
					c0.1,0,0.1,0,0.1,0.1c0,0,0,0.1,0,0.1l-0.2,1c0.1-0.2,0.2-0.3,0.4-0.5c0.2-0.2,0.4-0.3,0.6-0.5c0.2-0.1,0.4-0.2,0.7-0.3
					c0.3-0.1,0.5-0.1,0.8-0.1c0.3,0,0.6,0,0.8,0.1c0.2,0.1,0.4,0.2,0.5,0.4c0.1,0.2,0.2,0.4,0.3,0.6
					C137.4,143.7,137.5,143.9,137.5,144.2L137.5,144.2z M144.9,144.1c0,0.3-0.1,0.6-0.2,0.9c-0.2,0.3-0.4,0.5-0.7,0.7
					c-0.3,0.2-0.7,0.3-1.2,0.4c-0.5,0.1-1.1,0.2-1.8,0.2h-0.6c0,0.1,0,0.2,0,0.3c0,0.1,0,0.2,0,0.3c0,0.4,0.1,0.7,0.3,0.9
					c0.2,0.2,0.5,0.3,0.9,0.3c0.3,0,0.6,0,0.8-0.1c0.2,0,0.5-0.1,0.6-0.1c0.2-0.1,0.3-0.1,0.5-0.1c0.1,0,0.2-0.1,0.3-0.1
					c0.1,0,0.1,0,0.1,0c0,0,0,0.1,0,0.2c0,0.1,0,0.2,0,0.3c0,0.1,0,0.2-0.1,0.3c0,0.1-0.1,0.2-0.1,0.3c0,0.1-0.1,0.2-0.1,0.2
					c-0.1,0.1-0.2,0.1-0.3,0.2c-0.1,0.1-0.3,0.1-0.5,0.2c-0.2,0-0.5,0.1-0.7,0.1c-0.3,0-0.5,0-0.8,0c-0.5,0-0.8,0-1.2-0.1
					c-0.3-0.1-0.6-0.2-0.8-0.4c-0.2-0.2-0.4-0.4-0.5-0.7c-0.1-0.3-0.2-0.7-0.2-1.1c0-0.3,0-0.7,0.1-1c0.1-0.4,0.2-0.7,0.3-1.1
					c0.1-0.4,0.3-0.7,0.5-1c0.2-0.3,0.5-0.6,0.8-0.8c0.3-0.2,0.6-0.4,1-0.6c0.4-0.1,0.8-0.2,1.3-0.2c0.4,0,0.8,0.1,1.1,0.2
					c0.3,0.1,0.6,0.2,0.8,0.4c0.2,0.2,0.3,0.4,0.4,0.6C144.8,143.7,144.9,143.9,144.9,144.1L144.9,144.1z M143.1,144.3
					c0-0.2-0.1-0.3-0.2-0.5c-0.1-0.1-0.4-0.2-0.6-0.2c-0.2,0-0.4,0-0.6,0.1c-0.2,0.1-0.3,0.2-0.5,0.3s-0.3,0.3-0.4,0.5
					c-0.1,0.2-0.2,0.4-0.2,0.6h0.6c0.4,0,0.7,0,0.9-0.1c0.3,0,0.5-0.1,0.6-0.2c0.2-0.1,0.3-0.2,0.3-0.3
					C143.1,144.5,143.1,144.4,143.1,144.3L143.1,144.3z M150.7,142.7c0,0,0,0.1,0,0.2c0,0.1,0,0.2,0,0.3c0,0.1,0,0.2-0.1,0.3
					c0,0.1-0.1,0.2-0.1,0.3c0,0.1-0.1,0.2-0.1,0.3c0,0.1-0.1,0.1-0.1,0.1c0,0-0.1,0-0.1,0c0,0-0.1,0-0.1,0c-0.1,0-0.1,0-0.2-0.1
					c-0.1,0-0.1,0-0.2,0c-0.2,0-0.3,0.1-0.5,0.2c-0.2,0.1-0.4,0.3-0.5,0.5c-0.2,0.2-0.3,0.4-0.4,0.7c-0.1,0.3-0.2,0.5-0.3,0.8
					l-0.6,2.8c0,0,0,0.1-0.1,0.1c0,0-0.1,0.1-0.2,0.1c-0.1,0-0.2,0-0.3,0.1c-0.1,0-0.3,0-0.4,0c-0.2,0-0.3,0-0.4,0
					c-0.1,0-0.2,0-0.3-0.1c-0.1,0-0.1-0.1-0.1-0.1c0,0,0-0.1,0-0.1l1.3-6.3c0,0,0-0.1,0.1-0.1c0,0,0.1-0.1,0.1-0.1
					c0.1,0,0.1,0,0.2-0.1c0.1,0,0.2,0,0.4,0c0.1,0,0.3,0,0.4,0c0.1,0,0.2,0,0.2,0.1c0.1,0,0.1,0,0.1,0.1c0,0,0,0.1,0,0.1l-0.2,1
					c0.1-0.2,0.2-0.4,0.4-0.6c0.1-0.2,0.3-0.3,0.5-0.4c0.2-0.1,0.3-0.2,0.5-0.3c0.2-0.1,0.4-0.1,0.5-0.1c0.1,0,0.1,0,0.2,0
					c0.1,0,0.1,0,0.2,0c0.1,0,0.1,0,0.2,0.1c0,0,0.1,0,0.1,0.1C150.6,142.6,150.7,142.6,150.7,142.7L150.7,142.7z M156.3,149.3
					c-0.1,0.4-0.2,0.8-0.4,1.1c-0.2,0.3-0.4,0.6-0.7,0.8s-0.6,0.4-1.1,0.5c-0.4,0.1-0.9,0.2-1.5,0.2c-0.4,0-0.8,0-1.1-0.1
					c-0.3-0.1-0.6-0.1-0.8-0.2c-0.1,0-0.1-0.1-0.2-0.1c0,0,0-0.1,0-0.2c0,0,0-0.1,0-0.1c0-0.1,0-0.1,0-0.2c0-0.1,0-0.2,0.1-0.2
					c0-0.1,0.1-0.2,0.1-0.2c0-0.1,0.1-0.1,0.1-0.2c0,0,0.1-0.1,0.1-0.1c0.1,0,0.1,0,0.2,0.1c0.1,0,0.2,0.1,0.3,0.1
					c0.1,0,0.3,0.1,0.5,0.1c0.2,0,0.5,0.1,0.7,0.1c0.2,0,0.5,0,0.6-0.1c0.2,0,0.4-0.1,0.5-0.2c0.1-0.1,0.3-0.2,0.3-0.3
					c0.1-0.1,0.1-0.3,0.2-0.5c0.1-0.3,0.1-0.6,0.2-0.8c0.1-0.2,0.1-0.4,0.2-0.5c-0.1,0.2-0.2,0.3-0.4,0.5c-0.2,0.2-0.3,0.3-0.5,0.4
					c-0.2,0.1-0.4,0.2-0.7,0.3c-0.2,0.1-0.5,0.1-0.7,0.1c-0.4,0-0.7-0.1-0.9-0.2c-0.2-0.1-0.4-0.3-0.6-0.5c-0.2-0.2-0.3-0.5-0.3-0.8
					c-0.1-0.3-0.1-0.6-0.1-0.9c0-0.3,0-0.6,0.1-1c0.1-0.4,0.1-0.7,0.3-1.1c0.1-0.3,0.3-0.7,0.5-1c0.2-0.3,0.4-0.6,0.7-0.9
					c0.3-0.2,0.5-0.4,0.9-0.6c0.3-0.1,0.7-0.2,1.1-0.2c0.4,0,0.7,0.1,1,0.2c0.3,0.2,0.6,0.4,0.8,0.7l0.1-0.6c0-0.1,0.1-0.2,0.2-0.2
					c0.1,0,0.3-0.1,0.6-0.1c0.1,0,0.3,0,0.3,0c0.1,0,0.2,0,0.2,0.1c0.1,0,0.1,0,0.1,0.1c0,0,0,0.1,0,0.1L156.3,149.3L156.3,149.3z
					 M155.5,144.6c-0.2-0.3-0.3-0.5-0.5-0.6c-0.2-0.1-0.4-0.2-0.7-0.2c-0.2,0-0.4,0-0.5,0.1c-0.2,0.1-0.3,0.2-0.4,0.4
					c-0.1,0.2-0.2,0.3-0.3,0.5c-0.1,0.2-0.2,0.4-0.2,0.6c-0.1,0.2-0.1,0.5-0.1,0.7c0,0.2,0,0.4,0,0.6c0,0.2,0,0.3,0,0.4
					c0,0.1,0.1,0.2,0.1,0.3c0.1,0.1,0.1,0.2,0.2,0.2c0.1,0.1,0.2,0.1,0.3,0.1c0.2,0,0.4-0.1,0.6-0.2c0.2-0.1,0.4-0.3,0.6-0.5
					c0.2-0.2,0.4-0.5,0.5-0.7c0.1-0.3,0.2-0.6,0.3-0.9L155.5,144.6L155.5,144.6z M161.7,140.6c0,0.2-0.1,0.3-0.1,0.4
					c-0.1,0.1-0.1,0.2-0.2,0.3c-0.1,0.1-0.2,0.1-0.3,0.2c-0.1,0-0.3,0-0.5,0c-0.2,0-0.4,0-0.5,0c-0.1,0-0.2-0.1-0.3-0.2
					c-0.1-0.1-0.1-0.2-0.1-0.3c0-0.1,0-0.3,0-0.4c0-0.2,0.1-0.3,0.1-0.4c0.1-0.1,0.1-0.2,0.2-0.3c0.1-0.1,0.2-0.1,0.3-0.2
					c0.1,0,0.3-0.1,0.5-0.1c0.2,0,0.4,0,0.5,0.1c0.1,0,0.2,0.1,0.3,0.2c0.1,0.1,0.1,0.2,0.1,0.3
					C161.8,140.3,161.8,140.5,161.7,140.6L161.7,140.6z M159.9,149.1c0,0,0,0.1-0.1,0.1c0,0-0.1,0.1-0.2,0.1c-0.1,0-0.2,0-0.3,0.1
					c-0.1,0-0.3,0-0.4,0c-0.2,0-0.3,0-0.4,0c-0.1,0-0.2,0-0.3-0.1c-0.1,0-0.1-0.1-0.1-0.1c0,0,0-0.1,0-0.1l1.2-6.3
					c0,0,0-0.1,0.1-0.1c0,0,0.1-0.1,0.2-0.1c0.1,0,0.2,0,0.3-0.1c0.1,0,0.3,0,0.4,0c0.2,0,0.3,0,0.4,0c0.1,0,0.2,0,0.3,0.1
					c0.1,0,0.1,0.1,0.1,0.1c0,0,0,0.1,0,0.1L159.9,149.1z"/>
				<path class="st10" d="M168.6,142.7c0,0.1,0,0.2-0.1,0.3c-0.1,0.1-0.2,0.2-0.3,0.4l-2.2,2.1l1.4,3c0,0.1,0.1,0.2,0.1,0.3
					c0,0.1,0,0.2,0,0.2c0,0.1,0,0.1,0,0.1c0,0-0.1,0.1-0.2,0.1c-0.1,0-0.2,0-0.3,0.1c-0.1,0-0.3,0-0.5,0c-0.2,0-0.3,0-0.5,0
					c-0.1,0-0.2,0-0.3,0c-0.1,0-0.1-0.1-0.1-0.1c0,0-0.1-0.1-0.1-0.1l-1.5-3.3l-0.7,3.3c0,0,0,0.1-0.1,0.1c0,0-0.1,0.1-0.2,0.1
					c-0.1,0-0.2,0-0.3,0.1c-0.1,0-0.3,0-0.4,0c-0.2,0-0.3,0-0.4,0c-0.1,0-0.2,0-0.3-0.1c-0.1,0-0.1,0-0.1-0.1c0,0,0-0.1,0-0.1
					l1.9-9.3c0,0,0-0.1,0.1-0.1c0,0,0.1-0.1,0.2-0.1c0.1,0,0.2,0,0.3-0.1c0.1,0,0.3,0,0.4,0c0.2,0,0.3,0,0.4,0c0.1,0,0.2,0,0.3,0.1
					c0.1,0,0.1,0.1,0.1,0.1c0,0,0,0.1,0,0.1l-1.1,5.5l2.4-2.5c0-0.1,0.1-0.1,0.2-0.1c0.1,0,0.1-0.1,0.2-0.1c0.1,0,0.2,0,0.3,0
					c0.1,0,0.3,0,0.4,0c0.2,0,0.3,0,0.4,0c0.1,0,0.2,0,0.3,0c0.1,0,0.1,0,0.1,0.1C168.6,142.6,168.6,142.7,168.6,142.7L168.6,142.7z
					 M175.5,140.6c0,0.2-0.1,0.3-0.1,0.4c-0.1,0.1-0.1,0.2-0.2,0.3c-0.1,0.1-0.2,0.1-0.3,0.2c-0.1,0-0.3,0-0.5,0c-0.2,0-0.4,0-0.5,0
					c-0.1,0-0.2-0.1-0.3-0.2c-0.1-0.1-0.1-0.2-0.1-0.3c0-0.1,0-0.3,0-0.4c0-0.2,0.1-0.3,0.1-0.4c0.1-0.1,0.1-0.2,0.2-0.3
					c0.1-0.1,0.2-0.1,0.3-0.2c0.1,0,0.3-0.1,0.5-0.1c0.2,0,0.4,0,0.5,0.1c0.1,0,0.2,0.1,0.3,0.2c0.1,0.1,0.1,0.2,0.1,0.3
					C175.5,140.3,175.5,140.5,175.5,140.6L175.5,140.6z M173.7,149.1c0,0,0,0.1-0.1,0.1c0,0-0.1,0.1-0.2,0.1c-0.1,0-0.2,0-0.3,0.1
					c-0.1,0-0.3,0-0.4,0c-0.2,0-0.3,0-0.4,0c-0.1,0-0.2,0-0.3-0.1c-0.1,0-0.1-0.1-0.1-0.1c0,0,0-0.1,0-0.1l1.2-6.3
					c0,0,0-0.1,0.1-0.1c0,0,0.1-0.1,0.2-0.1c0.1,0,0.2,0,0.3-0.1c0.1,0,0.3,0,0.4,0c0.2,0,0.3,0,0.4,0c0.1,0,0.2,0,0.3,0.1
					c0.1,0,0.1,0.1,0.1,0.1c0,0,0,0.1,0,0.1L173.7,149.1z M183.1,148.6c0,0.1-0.1,0.2-0.1,0.3c-0.1,0.1-0.1,0.2-0.2,0.2
					c-0.1,0.1-0.2,0.1-0.2,0.1c-0.1,0-0.2,0-0.3,0h-0.8c-0.2,0-0.3,0-0.4,0c-0.1,0-0.2-0.1-0.3-0.2c-0.1-0.1-0.1-0.2-0.2-0.3
					c-0.1-0.1-0.1-0.3-0.2-0.6l-1.4-4.1c-0.1-0.3-0.2-0.6-0.3-1c-0.1-0.3-0.2-0.6-0.3-1h0c0,0.4-0.1,0.7-0.2,1.1
					c-0.1,0.4-0.1,0.7-0.2,1.1l-0.9,4.7c0,0,0,0.1-0.1,0.1c0,0-0.1,0.1-0.2,0.1c-0.1,0-0.2,0-0.3,0.1c-0.1,0-0.2,0-0.4,0
					c-0.2,0-0.3,0-0.4,0c-0.1,0-0.2,0-0.2-0.1c-0.1,0-0.1-0.1-0.1-0.1c0,0,0-0.1,0-0.1l1.6-8.2c0-0.2,0.1-0.4,0.3-0.5
					c0.1-0.1,0.3-0.2,0.5-0.2h1c0.2,0,0.3,0,0.4,0.1c0.1,0,0.2,0.1,0.3,0.2c0.1,0.1,0.1,0.2,0.2,0.3c0.1,0.1,0.1,0.3,0.2,0.5
					l1.4,4.1c0.1,0.3,0.2,0.5,0.2,0.8c0.1,0.3,0.1,0.5,0.2,0.8h0c0.1-0.3,0.1-0.7,0.2-1c0.1-0.4,0.1-0.7,0.2-1.1l0.9-4.3
					c0,0,0-0.1,0.1-0.1c0,0,0.1-0.1,0.2-0.1s0.2,0,0.3-0.1c0.1,0,0.2,0,0.4,0c0.2,0,0.3,0,0.4,0c0.1,0,0.2,0,0.2,0.1
					c0.1,0,0.1,0,0.1,0.1c0,0,0,0.1,0,0.1L183.1,148.6L183.1,148.6z M191.9,144.9c0,0.3,0,0.7-0.1,1c-0.1,0.4-0.2,0.7-0.3,1
					c-0.1,0.3-0.3,0.7-0.5,1c-0.2,0.3-0.5,0.6-0.8,0.8c-0.3,0.2-0.6,0.4-1,0.5c-0.4,0.1-0.8,0.2-1.3,0.2c-0.5,0-0.9-0.1-1.2-0.2
					c-0.3-0.1-0.6-0.3-0.9-0.5c-0.2-0.2-0.4-0.5-0.5-0.8c-0.1-0.3-0.2-0.7-0.2-1.1c0-0.3,0-0.7,0.1-1c0.1-0.4,0.2-0.7,0.3-1
					c0.1-0.3,0.3-0.7,0.5-1c0.2-0.3,0.5-0.6,0.8-0.8c0.3-0.2,0.6-0.4,1-0.5c0.4-0.1,0.8-0.2,1.3-0.2c0.5,0,0.9,0.1,1.2,0.2
					c0.3,0.1,0.6,0.3,0.9,0.5c0.2,0.2,0.4,0.5,0.5,0.8C191.8,144.1,191.9,144.5,191.9,144.9L191.9,144.9z M190,145
					c0-0.2,0-0.4-0.1-0.5c0-0.2-0.1-0.3-0.2-0.4c-0.1-0.1-0.2-0.2-0.4-0.2c-0.1-0.1-0.3-0.1-0.5-0.1c-0.2,0-0.4,0-0.6,0.1
					s-0.4,0.2-0.5,0.4c-0.1,0.2-0.3,0.3-0.4,0.5c-0.1,0.2-0.2,0.4-0.3,0.6c-0.1,0.2-0.1,0.5-0.2,0.7c0,0.2-0.1,0.5-0.1,0.7
					c0,0.2,0,0.4,0.1,0.5c0,0.2,0.1,0.3,0.2,0.4c0.1,0.1,0.2,0.2,0.4,0.2c0.1,0.1,0.3,0.1,0.5,0.1c0.2,0,0.4,0,0.6-0.1
					c0.2-0.1,0.4-0.2,0.5-0.4c0.1-0.2,0.3-0.3,0.4-0.5c0.1-0.2,0.2-0.4,0.3-0.7c0.1-0.2,0.1-0.5,0.2-0.7
					C190,145.4,190,145.2,190,145L190,145z M199.3,142.7c0,0.1,0,0.1,0,0.2c0,0.1,0,0.2-0.1,0.2c-0.2,0.5-0.4,1-0.6,1.5
					c-0.2,0.5-0.4,1-0.7,1.5c-0.3,0.5-0.5,1-0.8,1.5c-0.3,0.5-0.6,0.9-1,1.4c0,0.1-0.1,0.1-0.2,0.2c-0.1,0-0.1,0.1-0.2,0.1
					c-0.1,0-0.2,0-0.3,0c-0.1,0-0.3,0-0.4,0c-0.3,0-0.5,0-0.6,0c-0.1,0-0.3,0-0.3-0.1c-0.1,0-0.1-0.1-0.2-0.1c0,0,0-0.1,0-0.2
					l-0.7-5.7c0-0.1,0-0.1,0-0.2c0-0.1,0-0.1,0-0.2c0-0.1,0-0.2,0-0.2c0,0,0.1-0.1,0.1-0.1c0.1,0,0.2-0.1,0.3-0.1c0.1,0,0.3,0,0.5,0
					c0.2,0,0.3,0,0.4,0c0.1,0,0.2,0,0.3,0c0.1,0,0.1,0.1,0.1,0.1c0,0,0,0.1,0,0.1l0.5,4.6l0,0.2l0-0.1c0.2-0.4,0.5-0.7,0.7-1.1
					c0.2-0.4,0.4-0.7,0.5-1.1c0.2-0.4,0.3-0.8,0.5-1.2c0.1-0.4,0.3-0.9,0.4-1.3c0-0.1,0-0.1,0.1-0.1c0,0,0.1-0.1,0.2-0.1
					c0.1,0,0.2,0,0.3,0c0.1,0,0.3,0,0.4,0c0.2,0,0.3,0,0.4,0c0.1,0,0.2,0,0.3,0c0.1,0,0.1,0,0.1,0.1
					C199.3,142.6,199.3,142.7,199.3,142.7L199.3,142.7z M205.1,149.1c0,0.1-0.1,0.2-0.2,0.2c-0.1,0-0.3,0.1-0.6,0.1
					c-0.1,0-0.3,0-0.4,0c-0.1,0-0.2,0-0.2,0c-0.1,0-0.1,0-0.1-0.1c0,0,0-0.1,0-0.1l0.2-1c-0.1,0.2-0.2,0.3-0.3,0.5
					c-0.2,0.2-0.3,0.3-0.5,0.5c-0.2,0.1-0.4,0.2-0.7,0.3c-0.3,0.1-0.5,0.1-0.8,0.1c-0.4,0-0.7-0.1-0.9-0.2c-0.3-0.1-0.5-0.3-0.6-0.5
					c-0.1-0.2-0.3-0.5-0.3-0.8c-0.1-0.3-0.1-0.6-0.1-0.9c0-0.3,0-0.6,0.1-1c0.1-0.4,0.1-0.7,0.3-1c0.1-0.3,0.3-0.7,0.5-1
					c0.2-0.3,0.4-0.6,0.7-0.9c0.3-0.3,0.5-0.4,0.9-0.6c0.3-0.1,0.7-0.2,1.1-0.2c0.4,0,0.7,0.1,1,0.2c0.3,0.2,0.6,0.4,0.8,0.7
					l0.1-0.6c0-0.1,0.1-0.2,0.2-0.2c0.1,0,0.3-0.1,0.6-0.1c0.1,0,0.3,0,0.3,0c0.1,0,0.2,0,0.2,0.1c0.1,0,0.1,0,0.1,0.1
					c0,0,0,0.1,0,0.1L205.1,149.1L205.1,149.1z M204.3,144.6c-0.2-0.3-0.3-0.4-0.5-0.6c-0.2-0.1-0.4-0.2-0.7-0.2
					c-0.2,0-0.4,0-0.5,0.1c-0.2,0.1-0.3,0.2-0.4,0.4c-0.1,0.2-0.2,0.3-0.3,0.5c-0.1,0.2-0.2,0.4-0.2,0.6c-0.1,0.2-0.1,0.4-0.1,0.7
					c0,0.2,0,0.4,0,0.6c0,0.1,0,0.3,0,0.4c0,0.1,0.1,0.2,0.1,0.3c0.1,0.1,0.1,0.2,0.2,0.2c0.1,0.1,0.2,0.1,0.4,0.1
					c0.2,0,0.4-0.1,0.6-0.2c0.2-0.1,0.4-0.3,0.6-0.5c0.2-0.2,0.4-0.5,0.5-0.7c0.1-0.3,0.3-0.6,0.3-0.9L204.3,144.6L204.3,144.6z
					 M213.6,149.1c0,0,0,0.1-0.1,0.1c0,0-0.1,0.1-0.2,0.1c-0.1,0-0.2,0-0.3,0.1c-0.1,0-0.3,0-0.4,0c-0.2,0-0.3,0-0.4,0
					c-0.1,0-0.2,0-0.3-0.1c-0.1,0-0.1-0.1-0.1-0.1c0,0,0-0.1,0-0.1l1-5.1H210l-0.6,3c0,0.1,0,0.2,0,0.3c0,0.1,0,0.2,0,0.2
					c0,0.2,0,0.3,0.1,0.4c0.1,0.1,0.2,0.1,0.4,0.1c0.1,0,0.2,0,0.3,0c0.1,0,0.1,0,0.2-0.1c0.1,0,0.1,0,0.2-0.1c0,0,0.1,0,0.1,0
					c0,0,0.1,0,0.1,0.1c0,0,0,0.1,0,0.2c0,0.1,0,0.2,0,0.3c0,0.1,0,0.2-0.1,0.3c0,0.1-0.1,0.2-0.1,0.3c0,0.1-0.1,0.2-0.1,0.2
					c0,0-0.1,0.1-0.2,0.1c-0.1,0-0.2,0.1-0.3,0.1c-0.1,0-0.2,0.1-0.4,0.1c-0.1,0-0.3,0-0.4,0c-0.3,0-0.5,0-0.7-0.1
					c-0.2-0.1-0.4-0.2-0.5-0.3c-0.1-0.1-0.3-0.3-0.3-0.5c-0.1-0.2-0.1-0.4-0.1-0.7c0-0.1,0-0.1,0-0.2c0-0.1,0-0.1,0-0.2
					c0-0.1,0-0.2,0-0.2c0-0.1,0-0.1,0-0.2l0.6-3.1h-0.8c-0.1,0-0.1,0-0.1-0.1c0,0,0-0.1,0-0.2c0-0.1,0-0.2,0-0.3
					c0-0.1,0-0.3,0.1-0.4c0-0.1,0.1-0.2,0.1-0.3c0.1-0.1,0.1-0.1,0.2-0.1h0.8l0.3-1.4c0,0,0-0.1,0.1-0.1c0,0,0.1-0.1,0.2-0.1
					c0.1,0,0.2,0,0.3-0.1c0.1,0,0.3,0,0.4,0c0.2,0,0.3,0,0.4,0c0.1,0,0.2,0,0.3,0.1c0.1,0,0.1,0.1,0.1,0.1c0,0,0,0.1,0,0.1l-0.3,1.4
					h4.1c0.2,0,0.3,0,0.4,0.1c0.1,0.1,0.1,0.2,0,0.4L213.6,149.1L213.6,149.1z M215.4,140.6c0,0.2-0.1,0.3-0.1,0.4
					c-0.1,0.1-0.1,0.2-0.2,0.3c-0.1,0.1-0.2,0.1-0.3,0.2c-0.1,0-0.3,0-0.5,0c-0.2,0-0.4,0-0.5,0c-0.1,0-0.2-0.1-0.3-0.2
					c-0.1-0.1-0.1-0.2-0.1-0.3c0-0.1,0-0.3,0-0.4c0-0.2,0.1-0.3,0.1-0.4c0.1-0.1,0.1-0.2,0.2-0.3c0.1-0.1,0.2-0.1,0.3-0.2
					c0.1,0,0.3-0.1,0.5-0.1c0.2,0,0.4,0,0.5,0.1c0.1,0,0.2,0.1,0.3,0.2c0.1,0.1,0.1,0.2,0.1,0.3
					C215.5,140.3,215.4,140.5,215.4,140.6L215.4,140.6z M221,139.9c0,0,0,0.1,0,0.1c0,0.1,0,0.1,0,0.2c0,0.1,0,0.2,0,0.2
					c0,0.1,0,0.2-0.1,0.2c0,0.1-0.1,0.1-0.1,0.2c0,0-0.1,0.1-0.1,0.1c0,0-0.1,0-0.1,0c0,0-0.1,0-0.2,0c-0.1,0-0.1,0-0.2,0
					c-0.1,0-0.2,0-0.2,0c-0.1,0-0.3,0-0.4,0.1c-0.1,0-0.2,0.1-0.3,0.2c-0.1,0.1-0.1,0.2-0.2,0.4c-0.1,0.1-0.1,0.3-0.1,0.5l-0.1,0.5
					h1.1c0.1,0,0.1,0,0.1,0.1c0,0,0,0.1,0,0.2c0,0,0,0.1,0,0.2c0,0.1,0,0.2,0,0.2c0,0.1,0,0.2-0.1,0.3c0,0.1-0.1,0.2-0.1,0.2
					c0,0.1-0.1,0.1-0.1,0.2c0,0-0.1,0.1-0.1,0.1h-1.1l-1.1,5.5c-0.1,0.4-0.2,0.7-0.3,1c-0.1,0.3-0.3,0.5-0.5,0.7
					c-0.2,0.2-0.5,0.4-0.8,0.5c-0.3,0.1-0.6,0.2-1,0.2c-0.2,0-0.5,0-0.6-0.1c-0.2,0-0.3-0.1-0.3-0.1c0,0,0-0.1,0-0.1
					c0,0,0-0.1,0-0.1c0,0,0-0.1,0-0.1c0-0.1,0-0.1,0-0.2c0-0.1,0-0.2,0.1-0.2c0-0.1,0-0.2,0.1-0.2c0-0.1,0.1-0.1,0.1-0.2
					c0,0,0.1-0.1,0.1-0.1c0,0,0.1,0,0.1,0c0,0,0.1,0,0.1,0c0,0,0.1,0,0.1,0c0,0,0.1,0,0.2,0c0.2,0,0.3,0,0.4-0.1
					c0.1,0,0.2-0.1,0.3-0.2c0.1-0.1,0.1-0.2,0.2-0.4c0.1-0.1,0.1-0.3,0.1-0.5l1.1-5.3H216c-0.1,0-0.1,0-0.1-0.1c0,0,0-0.1,0-0.2
					c0,0,0-0.1,0-0.2c0-0.1,0-0.2,0-0.2c0-0.1,0-0.2,0.1-0.3c0-0.1,0.1-0.2,0.1-0.2c0-0.1,0.1-0.1,0.1-0.2c0,0,0.1-0.1,0.2-0.1h0.8
					l0.1-0.7c0.1-0.4,0.2-0.7,0.3-1c0.1-0.3,0.3-0.6,0.5-0.8c0.2-0.2,0.5-0.4,0.8-0.5c0.3-0.1,0.6-0.2,1-0.2c0.1,0,0.2,0,0.4,0
					c0.1,0,0.2,0,0.3,0.1c0.1,0,0.2,0,0.3,0.1c0.1,0,0.1,0.1,0.2,0.1c0,0,0,0.1,0.1,0.1C221,139.8,221,139.8,221,139.9L221,139.9z"
					/>
			</g>
			<g>
				<path class="st1" d="M280.7,31c-0.8,0.9-1.8,1.5-3.1,1.7l0,0c-2.8,0.5-5.3-1.4-6.1-4L267,15c-1-3.1,1.3-6.2,4.4-6.7l4.3-0.7
					c3.1-0.5,6.2,1.7,6.3,5l0,2.9c0.3-0.1,0.7-0.1,1-0.1l2.5,0c0.3,0,0.6,0,0.8,0.1l0-2.3c0-3.2,3.2-5.5,6.3-5l4.3,0.7
					c3.1,0.5,5.4,3.7,4.4,6.7l-0.8,2.6c0.5,0,0.9,0.2,1.3,0.3l2.3,1c0.6,0.3,1.1,0.6,1.5,1.1l1.6-3c1.6-2.8,5.4-3.3,7.9-1.4l3.5,2.7
					c2.5,1.9,3,5.7,0.7,8l-1.1,1.1c0.1,0.1,0.2,0.2,0.3,0.3l1.8,1.8c0.3,0.3,0.5,0.6,0.7,0.9l2.6-2.3c2.4-2.2,6.2-1.4,7.9,1.2
					l2.4,3.7c1.7,2.6,1,6.4-2,7.8l-13.1,6.1c-2.5,1.2-5.5,0.6-7.1-1.8l0,0c-0.7-1-0.9-2.1-0.9-3.2c-1.4,0.2-2.8-0.2-3.9-1.3l0,0
					c-0.7-0.7-1.1-1.7-1.2-2.6c-1.4,0.3-2.9,0-4.1-1l0,0c-0.9-0.7-1.5-1.6-1.8-2.6c-1.1,0.5-2.4,0.6-3.5,0l0,0c-1-0.4-1.7-1.2-2.2-2
					c-1,0.5-2.1,0.7-3.3,0.5l0,0c-1.5-0.2-2.7-1.1-3.4-2.2c-0.8,0.9-2,1.4-3.3,1.4l0,0C282.6,32.6,281.5,32,280.7,31L280.7,31z"/>
			</g>
			<g>
				<path class="st3" d="M292.1,11.4l4.3,0.7c1.2,0.2,2.2,1.4,1.8,2.5l-4.4,13.7c-0.4,1.1-1.3,2-2.5,1.8l0,0
					c-1.2-0.2-1.8-1.3-1.8-2.5l0.2-14.4C289.7,12,291,11.2,292.1,11.4L292.1,11.4z"/>
				<path class="st3" d="M300.6,21.5l2.3,1c0.6,0.3,1,1.1,0.7,1.6l-4.4,7.1c-0.4,0.6-1,0.9-1.6,0.7l0,0c-0.6-0.3-0.8-1-0.7-1.6
					l2.1-8.1C299.1,21.5,300,21.3,300.6,21.5z"/>
				<path class="st3" d="M313.3,18.8l3.5,2.7c0.9,0.7,1.3,2.2,0.4,3l-10.4,10c-0.9,0.8-2.1,1.1-3,0.4l0,0c-0.9-0.7-1-2-0.4-3l7-12.6
					C310.8,18.2,312.3,18.1,313.3,18.8L313.3,18.8z"/>
				<path class="st3" d="M316.3,30.5l1.8,1.8c0.5,0.5,0.5,1.4,0,1.8l-6.8,4.8c-0.6,0.4-1.3,0.5-1.8,0l0,0c-0.5-0.5-0.4-1.2,0-1.8
					l5.1-6.6C314.9,29.9,315.8,30,316.3,30.5z"/>
				<path class="st3" d="M328.8,31.7l2.4,3.7c0.7,1,0.5,2.5-0.6,3l-13.1,6.1c-1.1,0.5-2.4,0.4-3-0.6l0,0c-0.7-1-0.3-2.2,0.6-3
					l10.7-9.7C326.7,30.3,328.2,30.7,328.8,31.7L328.8,31.7z"/>
				<path class="st3" d="M283,18.6l2.5,0c0.7,0,1.3,0.6,1.2,1.3l-1.4,8.2c-0.1,0.7-0.6,1.2-1.3,1.2h0c-0.7,0-1.1-0.6-1.2-1.3
					l-1.1-8.3C281.6,19.1,282.3,18.6,283,18.6L283,18.6z"/>
				<path class="st3" d="M276.2,10.8l-4.3,0.7c-1.2,0.2-2.2,1.4-1.8,2.5l4.4,13.7c0.4,1.1,1.3,2,2.5,1.8l0,0
					c1.2-0.2,1.8-1.3,1.8-2.5l-0.2-14.4C278.7,11.4,277.4,10.6,276.2,10.8L276.2,10.8z"/>
			</g>
		</g>
	</g>
</g>
</svg>
