<svg xmlns="http://www.w3.org/2000/svg" viewBox="0 0 560 597"><defs><style>.cls-1{isolation:isolate;}.cls-2{fill:#040a10;}.cls-14,.cls-3{fill:#fff;}.cls-4,.cls-9{fill:#dfdfdf;}.cls-5{fill:#ffba1f;}.cls-6{fill:#979797;}.cls-7{fill:#ff9320;}.cls-8{fill:none;stroke:#fff;stroke-linecap:round;stroke-linejoin:round;}.cls-9{mix-blend-mode:multiply;}.cls-10{fill:#eb6622;}.cls-11{fill:#03162d;}.cls-12{fill:#feda18;}.cls-13{fill:#0083ff;opacity:0.19;}.cls-14{opacity:0.35;}.cls-15{fill:#f5aa14;}.cls-16{opacity:0.54;}.cls-17{fill:#005ac5;}.cls-18{fill:#eeebfc;}.cls-19{font-size:90px;fill:#352e2d;font-family:PlusJakartaSans-ExtraBold, Plus Jakarta Sans;font-weight:800;}.cls-20{letter-spacing:0em;fill:#000;}.cls-21,.cls-22,.cls-23{fill:#f6aa13;}.cls-21{letter-spacing:-0.03em;}.cls-22{letter-spacing:-0.05em;}</style></defs><g class="cls-1"><g id="Layer_2" data-name="Layer 2"><path class="cls-2" d="M269.45,269.43l1.76-13.33c.94-7.12-3.6-12.89-10.13-12.89H154.55l-3.47,26.22L149,285.61l-20,151.48c-2.18,16.5,8.34,29.88,23.49,29.88H385c15.15,0,29.2-13.38,31.38-29.88l22.14-167.66Z"/><path class="cls-3" d="M353.81,302.54,206.38,215.46C276.75,177.14,241,76.12,311.33,37.8l147.42,87.08C388.38,163.2,424.17,264.22,353.81,302.54Z"/><path class="cls-4" d="M321.42,183.92l-56.95-33.64c9.53-34.82,14.44-72.38,42.31-96.37l57,33.63C335.86,111.54,331,149.1,321.42,183.92Z"/><path class="cls-5" d="M428.34,135.11,368,99.48a83.73,83.73,0,0,1,6.07-5.81l60.31,35.63A81.64,81.64,0,0,0,428.34,135.11Z"/><path class="cls-6" d="M393.53,128.09l-32.95-19.47q1.5-2.13,3.14-4.17l32.95,19.46C395.58,125.28,394.54,126.67,393.53,128.09Z"/><path class="cls-6" d="M295,178.33,262,158.86q.78-2.55,1.51-5.13l33,19.47Q295.74,175.78,295,178.33Z"/><path class="cls-4" d="M317.43,197.27l-56.95-33.64c.28-.84.55-1.68.82-2.53l56.95,33.64C318,195.59,317.71,196.43,317.43,197.27Z"/><path class="cls-4" d="M315.81,202l-56.95-33.64c.3-.83.59-1.66.88-2.5l56.95,33.64C316.4,200.32,316.11,201.15,315.81,202Z"/><path class="cls-4" d="M415.49,152.84l-60.31-35.63.9-1.58,60.31,35.63Z"/><path class="cls-4" d="M411.17,161.45l-60.32-35.63c.26-.55.51-1.11.77-1.66l60.31,35.63C411.67,160.34,411.42,160.89,411.17,161.45Z"/><path class="cls-4" d="M407.47,170.43l-60.31-35.62.66-1.73,60.31,35.63Z"/><path class="cls-4" d="M404.29,179.72,344,144.09l.57-1.77,60.31,35.62Z"/><path class="cls-4" d="M401.48,189.23,341.17,153.6l.51-1.81L402,187.42Z"/><path class="cls-4" d="M398.93,198.89l-60.31-35.63c.15-.61.31-1.22.47-1.83l60.31,35.62C399.24,197.66,399.08,198.27,398.93,198.89Z"/><path class="cls-4" d="M396.49,208.61,336.18,173c.15-.61.31-1.23.46-1.84L397,206.77C396.8,207.39,396.65,208,396.49,208.61Z"/><path class="cls-4" d="M394.05,218.34l-60.31-35.63c.16-.61.31-1.22.47-1.83l60.31,35.62C394.36,217.11,394.21,217.73,394.05,218.34Z"/><path class="cls-4" d="M391.47,228l-60.31-35.62c.17-.61.34-1.21.5-1.82L392,226.17Z"/><path class="cls-4" d="M388.63,237.47l-60.31-35.63c.19-.59.37-1.18.56-1.78l60.31,35.63C389,236.28,388.82,236.88,388.63,237.47Z"/><path class="cls-4" d="M385.39,246.72,325.08,211.1c.22-.58.43-1.15.64-1.73L386,245C385.82,245.57,385.61,246.15,385.39,246.72Z"/><path class="cls-4" d="M381.62,255.66,321.31,220c.26-.55.51-1.11.76-1.66L382.38,254C382.13,254.56,381.88,255.11,381.62,255.66Z"/><polygon class="cls-4" points="145.94 337.38 353.26 337.38 375.15 106.9 167.83 106.9 145.94 337.38"/><polygon class="cls-7" points="142.19 336.63 349.51 336.63 368.03 100.12 160.71 100.12 142.19 336.63"/><polygon class="cls-5" points="138.29 329 348.7 329 364.13 92.49 180.71 92.49 138.29 329"/><polygon class="cls-3" points="350.58 337.15 143.26 337.15 143.26 112.28 168.23 87.31 350.58 87.31 350.58 337.15"/><rect class="cls-4" x="157.53" y="106.9" width="80.09" height="126.53"/><line class="cls-8" x1="231.99" y1="111.8" x2="162.63" y2="227.78"/><line class="cls-8" x1="162.63" y1="111.8" x2="231.99" y2="227.78"/><rect class="cls-5" x="252.21" y="106.9" width="84.81" height="9.79"/><rect class="cls-6" x="252.21" y="124.53" width="46.34" height="6.28"/><rect class="cls-6" x="157.53" y="237.62" width="46.34" height="6.28"/><rect class="cls-4" x="157.53" y="246.67" width="80.09" height="3.14"/><rect class="cls-4" x="157.53" y="252.57" width="80.09" height="3.14"/><rect class="cls-4" x="252.21" y="140.89" width="84.81" height="2.2"/><rect class="cls-4" x="252.21" y="152.53" width="84.81" height="2.2"/><rect class="cls-4" x="252.21" y="164.18" width="84.81" height="2.2"/><rect class="cls-4" x="252.21" y="175.82" width="84.81" height="2.2"/><rect class="cls-4" x="252.21" y="187.46" width="84.81" height="2.2"/><rect class="cls-4" x="252.21" y="199.1" width="84.81" height="2.2"/><rect class="cls-4" x="252.21" y="210.74" width="84.81" height="2.2"/><rect class="cls-4" x="252.21" y="222.39" width="84.81" height="2.2"/><rect class="cls-4" x="252.21" y="234.03" width="84.81" height="2.2"/><rect class="cls-4" x="252.21" y="245.67" width="84.81" height="2.2"/><rect class="cls-4" x="252.21" y="257.31" width="84.81" height="2.2"/><rect class="cls-4" x="252.21" y="268.95" width="84.81" height="2.2"/><path class="cls-9" d="M350.54,285.34l-103.08-5v-9a13.92,13.92,0,0,0-13.89-13.91l-90.31-.14V273.1l115.6,53.09"/><path class="cls-10" d="M243.35,285.61V273.37a11.84,11.84,0,0,0-11.83-11.84H125v178A27.43,27.43,0,0,0,152.42,467H385a27.43,27.43,0,0,0,27.43-27.43V285.61Z"/><rect class="cls-11" x="143.88" y="380.04" width="108.33" height="59.69"/><rect class="cls-5" x="153.95" y="388.34" width="44.1" height="44.1"/><rect class="cls-5" x="206.62" y="388.34" width="38.62" height="9.37"/><rect class="cls-5" x="206.62" y="400.79" width="38.62" height="2.55"/><rect class="cls-5" x="206.62" y="406.43" width="38.62" height="2.55"/><rect class="cls-5" x="206.62" y="415.44" width="5.16" height="5.16"/><rect class="cls-5" x="216.73" y="415.44" width="5.16" height="5.16"/><rect class="cls-5" x="226.83" y="415.44" width="5.16" height="5.16"/><rect class="cls-5" x="240.08" y="427.28" width="5.16" height="5.16"/><path class="cls-12" d="M320.75,376.16A80.07,80.07,0,1,0,323.22,263,80.16,80.16,0,0,0,320.75,376.16Zm16.66-98.39a59.55,59.55,0,1,1-1.84,84.2A59.63,59.63,0,0,1,337.41,277.77Z"/><circle class="cls-13" cx="377.76" cy="321.62" r="63.66"/><circle class="cls-14" cx="387.99" cy="345.97" r="24.34"/><circle class="cls-14" cx="418.87" cy="323.62" r="6.54"/><path class="cls-14" d="M348.5,292.36a41.15,41.15,0,0,1,18.27-10.63l-6.33-11.59A54.31,54.31,0,0,0,339.35,360l9.15-9.15A41.38,41.38,0,0,1,348.5,292.36Z"/><path class="cls-15" d="M324,375.34a76,76,0,1,0,0-107.43A76,76,0,0,0,324,375.34Zm98.73-98.73a63.65,63.65,0,1,1-90,0A63.65,63.65,0,0,1,422.77,276.61Z"/><g class="cls-16"><path class="cls-3" d="M388,281.52a41.26,41.26,0,0,1,19,10.84l9.15-9.15A54.09,54.09,0,0,0,388,268.27Z"/></g><path class="cls-15" d="M520.83,178.55h0a18.58,18.58,0,0,1,0,26.3l-54.22,54.22-26.3-26.3,54.22-54.22A18.58,18.58,0,0,1,520.83,178.55Z"/><rect class="cls-17" x="421.79" y="237.4" width="46.13" height="34.24" rx="5.29" transform="translate(579.45 749.06) rotate(-135)"/><polygon class="cls-9" points="143.26 112.28 168.23 87.31 164.34 115.48 143.26 112.28"/><polygon class="cls-18" points="143.26 112.28 168.23 87.31 168.23 112.28 143.26 112.28"/><path class="cls-5" d="M494.05,370.87H483.53V360.35a.77.77,0,0,0-1.54,0v10.52H471.48a.77.77,0,0,0,0,1.54H482v10.51a.77.77,0,1,0,1.54,0V372.41h10.52a.77.77,0,0,0,0-1.54Z"/><path class="cls-5" d="M166.67,320.64H153.21V307.17a1,1,0,0,0-2,0v13.47H137.78a1,1,0,1,0,0,2h13.46v13.46a1,1,0,0,0,2,0V322.61h13.46a1,1,0,1,0,0-2Z"/><path class="cls-5" d="M182.76,302.92h-6.3v-6.3a.47.47,0,0,0-.46-.47.46.46,0,0,0-.46.47v6.3h-6.31a.46.46,0,0,0,0,.92h6.31v6.3a.45.45,0,0,0,.46.46.46.46,0,0,0,.46-.46v-6.3h6.3a.46.46,0,1,0,0-.92Z"/><text class="cls-19" transform="translate(19.59 577.37)">ARSIP<tspan class="cls-20" x="268.38" y="0"> </tspan><tspan class="cls-21" x="284.58" y="0">D</tspan><tspan class="cls-22" x="348.38" y="0">AT</tspan><tspan class="cls-23" x="454.95" y="0">A</tspan></text></g></g></svg>