<?xml version="1.0" encoding="utf-8"?>
<!-- Generator: Adobe Illustrator 25.4.1, SVG Export Plug-In . SVG Version: 6.00 Build 0)  -->
<svg version="1.1" id="Layer_1" xmlns="http://www.w3.org/2000/svg" xmlns:xlink="http://www.w3.org/1999/xlink" x="0px" y="0px"
	 viewBox="0 0 560 597" style="enable-background:new 0 0 560 597;" xml:space="preserve">
<style type="text/css">
	.st0{fill:#040A10;}
	.st1{fill:#FFFFFF;}
	.st2{fill:#DFDFDF;}
	.st3{fill:#FFBA1F;}
	.st4{fill:#979797;}
	.st5{fill:#FF9320;}
	.st6{fill:none;stroke:#FFFFFF;stroke-linecap:round;stroke-linejoin:round;}
	.st7{fill:#EB6622;}
	.st8{fill:#03162D;}
	.st9{fill:#FEDA18;}
	.st10{opacity:0.19;fill:#0083FF;enable-background:new    ;}
	.st11{opacity:0.35;fill:#FFFFFF;enable-background:new    ;}
	.st12{fill:#F5AA14;}
	.st13{opacity:0.54;}
	.st14{fill:#005AC5;}
	.st15{fill:#EEEBFC;}
</style>
<g>
	<g id="Layer_2_00000121253842187814729970000006982691858172555394_">
		<path class="st0" d="M213.3,311l2.2-16.7c1.2-8.9-4.5-16.1-12.7-16.1H69.4L65,311l-2.6,20.3L37.4,521
			c-2.7,20.7,10.4,37.4,29.4,37.4H358c19,0,36.6-16.8,39.3-37.4l27.7-210L213.3,311z"/>
		<path class="st1" d="M319,352.5L134.3,243.4c88.1-48,43.4-174.5,131.5-222.5L450.4,130C362.3,178,407.1,304.5,319,352.5z"/>
		<path class="st2" d="M278.4,203.9l-71.3-42.1c11.9-43.6,18.1-90.7,53-120.7l71.4,42.1C296.5,113.3,290.4,160.3,278.4,203.9z"/>
		<path class="st3" d="M412.3,142.8l-75.6-44.6c2.4-2.6,4.9-5,7.6-7.3l75.5,44.6C417.2,137.8,414.7,140.2,412.3,142.8z"/>
		<path class="st4" d="M368.7,134l-41.3-24.4c1.3-1.8,2.6-3.5,3.9-5.2l41.3,24.4C371.3,130.5,370,132.2,368.7,134z"/>
		<path class="st4" d="M245.3,196.9L204,172.5c0.7-2.1,1.3-4.3,1.9-6.4l41.3,24.4C246.5,192.7,245.9,194.8,245.3,196.9z"/>
		<path class="st2" d="M273.4,220.6l-71.3-42.1c0.4-1.1,0.7-2.1,1-3.2l71.3,42.1C274.1,218.5,273.7,219.6,273.4,220.6z"/>
		<path class="st2" d="M271.4,226.6L200,184.4c0.4-1,0.7-2.1,1.1-3.1l71.3,42.1C272.1,224.5,271.7,225.5,271.4,226.6z"/>
		<path class="st2" d="M396.2,165l-75.5-44.6l1.1-2l75.5,44.6L396.2,165z"/>
		<path class="st2" d="M390.8,175.8l-75.6-44.6c0.3-0.7,0.6-1.4,1-2.1l75.5,44.6C391.4,174.4,391.1,175.1,390.8,175.8z"/>
		<path class="st2" d="M386.2,187l-75.5-44.6l0.8-2.2l75.5,44.6L386.2,187z"/>
		<path class="st2" d="M382.2,198.7L306.7,154l0.7-2.2l75.5,44.6L382.2,198.7z"/>
		<path class="st2" d="M378.7,210.6l-75.5-44.6l0.6-2.3l75.6,44.6L378.7,210.6z"/>
		<path class="st2" d="M375.5,222.7L299.9,178c0.2-0.8,0.4-1.5,0.6-2.3l75.5,44.6C375.9,221.1,375.7,221.9,375.5,222.7z"/>
		<path class="st2" d="M372.4,234.9l-75.5-44.6c0.2-0.8,0.4-1.5,0.6-2.3l75.6,44.6C372.8,233.3,372.6,234.1,372.4,234.9z"/>
		<path class="st2" d="M369.4,247l-75.5-44.6c0.2-0.8,0.4-1.5,0.6-2.3l75.5,44.6C369.8,245.5,369.6,246.3,369.4,247z"/>
		<path class="st2" d="M366.1,259.1l-75.5-44.6c0.2-0.8,0.4-1.5,0.6-2.3l75.6,44.6L366.1,259.1z"/>
		<path class="st2" d="M362.6,271L287,226.4c0.2-0.7,0.5-1.5,0.7-2.2l75.5,44.6C363,269.5,362.8,270.3,362.6,271z"/>
		<path class="st2" d="M358.5,282.6L283,238c0.3-0.7,0.5-1.4,0.8-2.2l75.5,44.6C359.1,281.1,358.8,281.9,358.5,282.6z"/>
		<path class="st2" d="M353.8,293.8l-75.5-44.7c0.3-0.7,0.6-1.4,1-2.1l75.5,44.7C354.4,292.4,354.1,293.1,353.8,293.8z"/>
		<polygon class="st2" points="58.6,396.1 318.3,396.1 345.7,107.5 86,107.5 		"/>
		<polygon class="st5" points="53.9,395.2 313.6,395.2 336.8,99 77.1,99 		"/>
		<polygon class="st3" points="49,385.7 312.6,385.7 331.9,89.4 102.1,89.4 		"/>
		<polygon class="st1" points="314.9,395.9 55.2,395.9 55.2,114.2 86.5,82.9 314.9,82.9 		"/>
		<rect x="73.1" y="107.5" class="st2" width="100.3" height="158.5"/>
		<line class="st6" x1="166.4" y1="113.6" x2="79.5" y2="258.9"/>
		<line class="st6" x1="79.5" y1="113.6" x2="166.4" y2="258.9"/>
		<rect x="191.7" y="107.5" class="st3" width="106.2" height="12.3"/>
		<rect x="191.7" y="129.5" class="st4" width="58" height="7.9"/>
		<rect x="73.1" y="271.2" class="st4" width="58" height="7.9"/>
		<rect x="73.1" y="282.5" class="st2" width="100.3" height="3.9"/>
		<rect x="73.1" y="289.9" class="st2" width="100.3" height="3.9"/>
		<rect x="191.7" y="150" class="st2" width="106.2" height="2.8"/>
		<rect x="191.7" y="164.6" class="st2" width="106.2" height="2.8"/>
		<rect x="191.7" y="179.2" class="st2" width="106.2" height="2.8"/>
		<rect x="191.7" y="193.8" class="st2" width="106.2" height="2.8"/>
		<rect x="191.7" y="208.4" class="st2" width="106.2" height="2.8"/>
		<rect x="191.7" y="222.9" class="st2" width="106.2" height="2.8"/>
		<rect x="191.7" y="237.5" class="st2" width="106.2" height="2.8"/>
		<rect x="191.7" y="252.1" class="st2" width="106.2" height="2.8"/>
		<rect x="191.7" y="266.7" class="st2" width="106.2" height="2.8"/>
		<rect x="191.7" y="281.3" class="st2" width="106.2" height="2.8"/>
		<rect x="191.7" y="295.9" class="st2" width="106.2" height="2.8"/>
		<rect x="191.7" y="310.4" class="st2" width="106.2" height="2.8"/>
		<path class="st2" d="M314.9,331l-129.1-6.3v-11.3c0-9.6-7.8-17.4-17.4-17.4l-113.1-0.2v19.8L200,382.1"/>
		<path class="st7" d="M180.6,331.3V316c0-8.2-6.6-14.8-14.8-14.8H32.4v223c0,19,15.3,34.4,34.3,34.4c0,0,0,0,0,0H358
			c19,0,34.4-15.4,34.4-34.4V331.3H180.6z"/>
		<rect x="56" y="449.6" class="st8" width="135.7" height="74.8"/>
		<rect x="68.6" y="460" class="st3" width="55.2" height="55.2"/>
		<rect x="134.6" y="460" class="st3" width="48.4" height="11.7"/>
		<rect x="134.6" y="475.6" class="st3" width="48.4" height="3.2"/>
		<rect x="134.6" y="482.6" class="st3" width="48.4" height="3.2"/>
		<rect x="134.6" y="493.9" class="st3" width="6.5" height="6.5"/>
		<rect x="147.3" y="493.9" class="st3" width="6.5" height="6.5"/>
		<rect x="159.9" y="493.9" class="st3" width="6.5" height="6.5"/>
		<rect x="176.5" y="508.8" class="st3" width="6.5" height="6.5"/>
		<path class="st9" d="M277.6,444.7c38.3,40,101.8,41.4,141.8,3.2s41.4-101.8,3.2-141.8s-101.8-41.4-141.8-3.2c0,0,0,0-0.1,0.1
			C240.7,341.3,239.4,404.7,277.6,444.7z M298.4,321.5c29.8-28.5,77-27.5,105.5,2.3c28.5,29.8,27.5,77-2.3,105.5
			c-29.8,28.5-77,27.5-105.5-2.3C267.7,397.2,268.7,350,298.4,321.5L298.4,321.5z"/>
		<circle class="st10" cx="349" cy="376.4" r="79.7"/>
		<circle class="st11" cx="361.8" cy="406.9" r="30.5"/>
		<circle class="st11" cx="400.5" cy="378.9" r="8.2"/>
		<path class="st11" d="M312.3,339.8c6.3-6.4,14.2-10.9,22.9-13.3l-7.9-14.5c-35.6,12-54.8,50.6-42.8,86.2c3.3,9.9,8.9,19,16.4,26.4
			l11.5-11.5C292.1,392.8,292.1,360,312.3,339.8z"/>
		<path class="st12" d="M281.6,443.7c37.2,37.2,97.4,37.2,134.6,0.1s37.2-97.4,0.1-134.6s-97.4-37.2-134.6-0.1c0,0,0,0-0.1,0.1
			C244.5,346.3,244.5,406.5,281.6,443.7z M405.3,320c31.1,31.1,31.1,81.6,0,112.8c-31.1,31.1-81.6,31.1-112.8,0s-31.1-81.6,0-112.8
			c0,0,0,0,0,0C323.7,288.9,374.2,288.9,405.3,320C405.3,320,405.3,320,405.3,320L405.3,320z"/>
		<g class="st13">
			<path class="st1" d="M361.8,326.2c9,2.3,17.2,7,23.8,13.6l11.5-11.5c-9.6-9.6-21.9-16.2-35.3-18.7V326.2z"/>
		</g>
		<path class="st12" d="M528.2,197.2L528.2,197.2c9.1,9.1,9.1,23.8,0,32.9c0,0,0,0,0,0l-67.9,67.9l-32.9-32.9l67.9-67.9
			C504.3,188.1,519,188.1,528.2,197.2C528.1,197.2,528.2,197.2,528.2,197.2z"/>
		<path class="st14" d="M433.6,323.3l-31.5-31.5c-2.6-2.6-2.6-6.8,0-9.4l21-21c2.6-2.6,6.8-2.6,9.4,0l31.5,31.5
			c2.6,2.6,2.6,6.8,0,9.4l-21,21C440.4,325.9,436.2,325.9,433.6,323.3z"/>
		<polygon class="st2" points="55.2,114.2 86.5,82.9 81.6,118.2 		"/>
		<polygon class="st15" points="55.2,114.2 86.5,82.9 86.5,114.2 		"/>
		<path class="st3" d="M494.6,438.1h-13.2v-13.2c0-0.5-0.4-1-1-1c-0.5,0-1,0.4-1,1v13.2h-13.2c-0.5,0-1,0.4-1,1c0,0.5,0.4,1,1,1
			h13.2v13.2c0,0.5,0.4,1,1,1c0.5,0,1-0.4,1-1V440h13.2c0.5,0,1-0.4,1-1C495.6,438.5,495.2,438.1,494.6,438.1L494.6,438.1
			L494.6,438.1z"/>
		<path class="st3" d="M84.6,375.2H67.7v-16.9c0-0.7-0.6-1.3-1.3-1.3s-1.3,0.6-1.3,1.3v16.9H48.4c-0.7,0-1.3,0.6-1.3,1.3
			s0.6,1.3,1.3,1.3h16.9v16.9c0,0.7,0.6,1.3,1.3,1.3c0.7,0,1.3-0.6,1.3-1.3v-16.9h16.9c0.7,0,1.3-0.6,1.3-1.3S85.3,375.1,84.6,375.2
			L84.6,375.2z"/>
		<path class="st3" d="M104.7,353h-7.9v-7.9c0-0.3-0.3-0.6-0.6-0.6c-0.3,0-0.6,0.3-0.6,0.6c0,0,0,0,0,0v7.9h-7.9
			c-0.3,0-0.6,0.3-0.6,0.6s0.3,0.6,0.6,0.6h7.9v7.9c0,0.3,0.2,0.6,0.6,0.6c0,0,0,0,0,0c0.3,0,0.6-0.3,0.6-0.6v-7.9h7.9
			c0.3,0,0.6-0.3,0.6-0.6S105,353,104.7,353z"/>
	</g>
</g>
</svg>
